{"glyphs":{"0":{"ha":792,"x_min":71,"x_max":721,"o":"m 140 871 q 247 981 176 939 q 394 1022 318 1022 q 545 982 476 1022 q 667 842 614 942 q 721 503 721 742 q 668 165 721 265 q 544 24 615 65 q 394 -18 474 -18 q 247 23 315 -18 q 124 164 178 64 q 71 503 71 264 q 140 871 71 740 m 167 504 q 200 233 167 324 q 283 107 233 143 q 394 71 332 71 q 508 107 458 71 q 580 200 558 143 q 613 336 601 257 q 624 504 624 415 q 613 669 624 590 q 580 806 601 747 q 508 901 558 865 q 394 938 458 938 q 283 901 333 938 q 200 778 233 865 q 167 504 167 690 z "},"1":{"ha":792,"x_min":164,"x_max":456,"o":"m 385 1001 l 456 1001 l 456 0 l 365 0 l 365 874 l 208 754 l 164 807 l 385 1001 z "},"2":{"ha":792,"x_min":90,"x_max":682,"o":"m 90 75 l 133 125 q 206 206 156 147 q 283 294 257 264 l 388 413 q 523 603 485 531 q 561 742 561 675 q 507 874 561 822 q 365 925 453 925 q 273 910 317 925 q 168 856 229 894 l 117 933 q 252 997 193 978 q 375 1017 311 1017 q 580 942 499 1017 q 661 751 661 867 q 629 603 661 675 q 552 473 597 531 q 486 391 507 415 q 438 335 465 367 l 331 218 l 247 133 l 201 85 l 682 85 l 682 0 l 90 0 l 90 75 z "},"3":{"ha":792,"x_min":74,"x_max":678,"o":"m 100 125 q 311 85 213 85 q 503 142 429 85 q 576 293 576 199 q 506 434 576 385 q 304 483 436 483 q 206 476 263 483 l 206 572 l 276 569 q 394 576 353 569 q 503 619 436 583 q 571 756 571 656 q 511 879 571 832 q 351 926 451 926 q 154 881 264 926 l 110 963 q 351 1017 242 1017 q 581 945 493 1017 q 669 758 669 874 q 638 635 669 685 q 572 564 606 586 q 489 531 538 542 q 611 472 544 515 q 678 292 678 429 q 576 74 678 158 q 314 -11 475 -11 q 190 3 267 -11 q 122 19 135 15 q 74 38 108 24 l 100 125 z "},"4":{"ha":792,"x_min":49,"x_max":742,"o":"m 49 315 l 504 1001 l 613 1001 l 613 326 l 742 326 l 742 240 l 614 240 l 614 0 l 524 0 l 525 240 l 49 240 l 49 315 m 160 326 l 522 326 l 524 779 l 525 838 l 536 911 q 512 856 522 876 q 479 803 501 836 l 160 326 z "},"5":{"ha":792,"x_min":89,"x_max":672,"o":"m 108 125 q 308 78 217 78 q 502 143 429 78 q 575 317 575 208 q 508 476 575 418 q 321 533 440 533 q 110 494 246 533 l 108 1001 l 628 1001 l 628 914 l 197 914 l 197 603 q 336 622 283 622 q 581 540 490 622 q 672 319 672 458 q 572 80 672 172 q 313 -12 471 -12 q 199 0 251 -12 q 89 38 147 13 l 108 125 z "},"6":{"ha":792,"x_min":72,"x_max":728,"o":"m 668 897 q 507 928 586 928 q 265 822 356 928 q 174 526 174 717 q 421 650 257 650 q 641 559 554 650 q 728 328 728 468 q 639 85 728 181 q 411 -11 550 -11 q 161 110 250 -11 q 72 447 72 231 q 188 865 72 714 q 506 1017 303 1017 q 699 981 597 1017 l 668 897 m 188 303 q 253 148 188 210 q 413 86 319 86 q 568 153 507 86 q 629 326 629 221 q 569 492 629 428 q 414 556 510 556 q 251 490 315 556 q 188 321 188 425 l 188 303 z "},"7":{"ha":792,"x_min":90,"x_max":710,"o":"m 90 1001 l 710 1001 l 710 929 l 307 0 l 206 0 l 610 914 l 90 914 l 90 1001 z "},"8":{"ha":792,"x_min":64,"x_max":725,"o":"m 97 774 q 184 949 97 878 q 400 1019 271 1019 q 607 951 524 1019 q 690 781 690 883 q 647 648 690 708 q 506 529 603 588 q 725 267 725 447 q 632 67 725 147 q 400 -14 539 -14 q 160 67 256 -14 q 64 267 64 147 q 275 526 64 453 q 97 774 97 632 m 401 563 q 545 676 503 625 q 588 783 588 726 q 536 889 588 847 q 403 931 485 931 q 256 888 311 931 q 200 772 200 844 q 246 664 200 713 q 401 563 292 615 m 381 483 q 163 272 163 407 q 230 136 163 192 q 396 81 297 81 q 558 134 493 81 q 622 267 622 188 q 560 392 622 356 q 463 447 499 429 q 381 483 428 464 z "},"9":{"ha":792,"x_min":61,"x_max":719,"o":"m 124 110 q 279 79 203 79 q 521 185 428 79 q 614 471 614 290 q 374 363 532 363 q 149 451 236 363 q 61 683 61 540 q 151 922 61 826 q 378 1018 242 1018 q 599 935 525 1018 q 696 769 672 853 q 719 557 719 685 q 603 140 719 292 q 282 -11 486 -11 q 192 -2 231 -11 q 132 15 154 7 q 85 33 110 22 l 124 110 m 160 688 q 219 518 160 583 q 378 453 279 453 q 539 518 475 453 q 603 685 603 583 q 540 857 603 789 q 382 925 478 925 q 223 858 286 925 q 160 688 160 790 z "},"¦":{"ha":1085,"x_min":67,"x_max":1018,"o":"m 67 0 l 67 1085 l 1018 1085 l 1018 0 l 67 0 m 951 67 l 951 1018 l 133 1018 l 133 67 l 951 67 z "}," ":{"ha":403,"x_min":0,"x_max":0,"o":""},"!":{"ha":238,"x_min":71,"x_max":168,"o":"m 71 146 l 167 146 l 167 0 l 71 0 l 71 146 m 168 1001 l 156 214 l 82 214 l 71 1001 l 168 1001 z "},"\"":{"ha":425,"x_min":40,"x_max":385,"o":"m 81 1011 l 189 989 l 125 685 l 40 693 l 81 1011 m 276 1011 l 385 989 l 319 685 l 236 693 l 276 1011 z "},"#":{"ha":878,"x_min":74,"x_max":739,"o":"m 86 381 l 246 381 l 296 619 l 136 619 l 149 678 l 308 678 l 371 975 l 429 975 l 367 678 l 521 678 l 583 975 l 642 975 l 579 678 l 739 678 l 726 619 l 567 619 l 515 381 l 676 381 l 664 322 l 504 322 l 442 25 l 383 25 l 446 322 l 292 322 l 229 25 l 171 25 l 233 322 l 74 322 l 86 381 m 457 381 l 508 619 l 354 619 l 304 381 l 457 381 z "},"$":{"ha":649,"x_min":40,"x_max":593,"o":"m 256 1079 l 332 1079 l 332 1014 l 360 1017 q 533 978 431 1017 l 493 906 l 474 911 q 453 919 465 915 q 426 926 442 922 q 383 932 410 929 q 333 938 357 935 l 333 564 q 538 429 482 490 q 593 276 593 368 q 524 90 593 167 q 335 -8 454 14 l 335 -76 l 257 -76 l 257 -14 q 196 -8 222 -14 q 148 3 169 -3 q 98 19 126 8 q 40 44 69 31 l 89 119 q 162 88 125 101 q 258 74 199 74 l 258 499 l 189 540 q 74 643 107 593 q 40 763 40 693 q 96 919 40 856 q 256 1006 151 982 l 256 1079 m 335 461 l 335 79 q 390 97 372 89 q 433 126 408 106 q 476 190 457 147 q 496 272 496 232 q 477 343 496 308 q 425 403 458 378 l 365 442 l 335 461 m 258 924 q 169 865 201 906 q 138 767 138 824 q 156 699 138 735 q 199 647 174 664 l 246 614 l 258 607 l 258 924 z "},"%":{"ha":1119,"x_min":50,"x_max":1069,"o":"m 299 1021 q 475 949 401 1021 q 549 774 549 876 q 476 598 549 671 q 299 525 403 525 q 122 597 194 525 q 50 774 50 669 q 122 949 50 876 q 299 1021 194 1021 m 807 1025 l 881 983 l 310 -24 l 238 17 l 807 1025 m 819 485 q 997 412 924 485 q 1069 236 1069 339 q 997 60 1069 132 q 818 -11 924 -11 q 644 61 717 -11 q 572 236 572 133 q 644 412 572 339 q 819 485 715 485 m 143 774 q 188 659 143 706 q 299 613 233 613 q 411 660 365 613 q 457 774 457 707 q 410 887 457 840 q 299 933 364 933 q 188 888 232 933 q 143 774 143 842 m 664 238 q 708 122 664 169 q 818 75 753 75 q 931 123 885 75 q 978 238 978 171 q 931 353 978 306 q 819 401 885 401 q 710 354 756 401 q 664 238 664 307 z "},"&":{"ha":942,"x_min":60,"x_max":911,"o":"m 182 799 q 254 958 182 894 q 438 1022 326 1022 q 610 963 542 1022 q 678 808 678 903 q 622 658 678 724 q 444 535 567 592 l 682 264 q 720 338 707 308 q 745 407 733 368 q 762 473 757 446 q 774 561 767 500 l 863 561 q 856 471 863 504 q 828 367 850 438 q 742 193 807 297 l 911 0 l 794 0 l 688 124 q 647 82 661 96 q 572 28 632 68 q 388 -11 513 -11 q 152 69 244 -11 q 60 275 60 150 q 299 568 60 476 q 182 799 182 681 m 392 606 q 582 800 582 676 q 540 896 582 858 q 432 933 499 933 q 322 894 367 933 q 278 796 278 856 q 392 606 278 707 m 357 501 q 209 408 256 461 q 163 279 163 356 q 228 135 163 192 q 394 79 294 79 q 542 113 493 79 q 601 155 590 146 q 633 188 611 164 l 357 501 z "},"'":{"ha":229,"x_min":40,"x_max":189,"o":"m 81 1011 l 189 989 l 125 685 l 40 693 l 81 1011 z "},"(":{"ha":356,"x_min":60,"x_max":354,"o":"m 354 1092 l 265 960 q 175 739 208 860 q 142 514 142 618 q 183 260 142 381 q 256 85 225 140 q 354 -64 286 31 l 300 -99 q 185 60 235 -18 q 97 265 135 138 q 60 514 60 393 q 106 793 60 672 q 187 972 151 914 q 300 1126 222 1029 l 354 1092 z "},")":{"ha":354,"x_min":1,"x_max":294,"o":"m 86 69 q 179 292 144 171 q 214 514 214 413 q 171 760 214 638 q 99 935 128 882 q 1 1090 71 989 l 57 1128 q 170 966 124 1040 q 256 761 217 892 q 294 514 294 631 q 244 228 294 356 q 165 52 194 101 q 57 -100 136 3 l 1 -62 q 47 7 14 -44 q 86 69 79 58 z "},"*":{"ha":567,"x_min":40,"x_max":526,"o":"m 72 886 l 254 800 l 228 1001 l 339 1001 l 314 800 l 494 886 l 526 767 l 322 749 l 474 597 l 378 522 l 283 711 l 188 522 l 94 597 l 244 749 l 40 767 l 72 886 z "},"+":{"ha":792,"x_min":44,"x_max":746,"o":"m 44 544 l 358 543 l 357 854 l 439 854 l 438 543 l 746 544 l 746 461 l 436 463 l 438 150 l 356 150 l 358 463 l 44 461 l 44 544 z "},",":{"ha":204,"x_min":19,"x_max":164,"o":"m 61 167 l 164 146 l 97 -154 l 19 -146 l 61 167 z "},"-":{"ha":413,"x_min":40,"x_max":372,"o":"m 40 485 l 372 485 l 372 389 l 40 389 l 40 485 z "},".":{"ha":178,"x_min":40,"x_max":136,"o":"m 40 144 l 136 144 l 136 0 l 40 0 l 40 144 z "},"/":{"ha":846,"x_min":19,"x_max":826,"o":"m 725 1001 l 826 1001 l 119 0 l 19 0 l 725 1001 z "},":":{"ha":239,"x_min":71,"x_max":168,"o":"m 71 144 l 167 144 l 167 0 l 71 0 l 71 144 m 71 600 l 168 600 l 168 458 l 71 458 l 71 600 z "},";":{"ha":224,"x_min":40,"x_max":183,"o":"m 81 167 l 183 146 l 118 -154 l 40 -146 l 81 167 m 71 600 l 168 600 l 168 457 l 71 457 l 71 600 z "},"<":{"ha":360,"x_min":43,"x_max":317,"o":"m 247 742 l 317 726 l 163 371 l 314 17 l 247 -3 l 43 369 l 247 742 z "},"=":{"ha":792,"x_min":44,"x_max":746,"o":"m 44 469 l 746 469 l 746 388 l 44 388 l 44 469 m 44 631 l 746 631 l 746 549 l 44 549 l 44 631 z "},">":{"ha":356,"x_min":43,"x_max":313,"o":"m 111 744 l 313 369 l 111 -4 l 44 14 l 193 369 l 43 729 l 111 744 z "},"?":{"ha":643,"x_min":1,"x_max":603,"o":"m 229 144 l 326 144 l 326 0 l 229 0 l 229 144 m 272 1021 q 508 938 414 1021 q 603 728 603 854 q 572 599 603 658 q 479 494 540 540 l 422 450 q 376 410 394 429 q 347 368 358 390 q 331 322 335 346 q 326 254 326 299 l 328 211 l 229 211 q 229 282 229 251 q 233 332 229 313 q 268 425 239 385 q 359 515 297 465 q 436 580 421 565 q 474 629 451 594 q 497 726 497 664 q 433 875 497 817 q 269 933 369 933 q 162 914 215 933 q 47 851 108 894 l 1 922 q 133 997 68 974 q 272 1021 199 1021 z "},"@":{"ha":1158,"x_min":79,"x_max":997,"o":"m 599 271 q 483 213 549 213 q 383 244 451 213 q 314 475 314 276 l 319 525 q 368 680 333 614 q 456 784 403 746 q 561 822 508 822 q 678 746 639 822 l 685 731 l 697 817 l 764 815 l 710 513 l 690 388 q 688 367 689 378 q 688 350 688 356 q 698 290 688 325 q 754 254 708 254 q 781 260 764 254 q 813 279 797 267 q 855 324 828 292 q 899 403 882 357 q 924 501 917 450 q 931 589 931 553 q 833 859 931 756 q 582 963 735 963 q 453 948 544 963 q 258 803 361 933 q 154 499 154 674 q 182 324 154 435 q 320 124 210 214 q 568 35 431 35 q 676 49 625 35 q 782 96 728 63 l 851 146 q 929 224 896 183 l 961 188 l 925 147 q 752 23 843 64 q 561 -18 661 -18 q 240 108 374 -18 q 92 351 106 233 q 79 499 79 468 q 106 668 79 588 q 189 826 132 749 q 333 956 246 904 q 484 1015 421 1007 q 576 1022 547 1022 q 878 901 760 1022 q 997 590 997 779 q 983 462 997 554 q 906 290 969 369 q 801 205 843 211 q 744 199 758 199 q 656 235 690 199 q 626 321 621 271 q 599 271 618 293 m 406 315 q 486 265 429 265 q 547 288 524 265 q 585 335 571 310 q 610 393 599 360 q 630 456 622 426 q 643 519 638 486 l 646 535 l 654 592 q 658 643 658 621 q 628 729 658 696 q 560 763 599 763 q 474 718 510 763 q 421 619 439 674 q 397 529 403 564 q 390 467 392 494 q 388 403 388 439 q 392 355 388 378 q 406 315 397 332 z "},"A":{"ha":874,"x_min":-19,"x_max":893,"o":"m 397 1001 l 493 1001 l 893 0 l 794 0 l 685 276 l 193 276 l 81 0 l -19 0 l 397 1001 m 224 356 l 658 356 l 469 831 l 456 867 q 448 890 451 876 q 444 926 444 904 q 440 893 443 908 q 433 867 438 878 l 419 831 l 224 356 z "},"B":{"ha":735,"x_min":100,"x_max":685,"o":"m 100 1001 l 299 1001 q 415 994 372 1001 q 511 964 458 988 q 600 882 564 940 q 636 751 636 824 q 594 612 636 674 q 485 531 551 550 q 628 452 572 521 q 685 285 685 383 q 606 86 685 144 q 469 14 526 28 q 315 0 411 0 l 100 0 l 100 1001 m 189 563 l 290 563 q 378 568 346 563 q 476 604 411 574 q 542 746 542 635 q 497 865 542 821 q 371 918 453 910 l 303 921 l 189 921 l 189 563 m 189 78 l 328 78 q 519 132 453 78 q 586 286 586 186 q 539 417 586 365 q 435 476 492 468 q 329 483 379 483 l 189 483 l 189 78 z "},"C":{"ha":844,"x_min":60,"x_max":814,"o":"m 783 889 q 672 922 722 913 q 563 932 622 932 q 266 815 376 932 q 156 500 156 697 q 268 188 156 306 q 568 69 381 69 q 669 78 621 69 q 776 108 717 86 l 803 31 q 571 -12 682 -12 q 200 126 340 -12 q 60 496 60 265 q 183 856 60 751 q 381 988 306 961 q 558 1014 457 1014 q 691 1003 636 1014 q 814 963 746 992 l 783 889 z "},"D":{"ha":894,"x_min":100,"x_max":835,"o":"m 100 1001 l 313 1001 q 533 980 422 1001 q 740 828 644 958 q 835 504 835 697 q 694 136 835 272 q 314 0 554 0 l 100 0 l 100 1001 m 190 79 l 333 81 q 631 194 522 81 q 740 503 740 307 q 649 806 740 726 q 497 904 557 886 q 322 922 436 922 l 190 921 l 190 79 z "},"E":{"ha":626,"x_min":100,"x_max":586,"o":"m 100 1001 l 567 1001 l 567 921 l 190 921 l 190 558 l 529 558 l 529 478 l 190 478 l 190 81 l 586 81 l 586 0 l 100 0 l 100 1001 z "},"F":{"ha":569,"x_min":100,"x_max":558,"o":"m 100 1001 l 558 1001 l 558 921 l 189 921 l 189 567 l 522 567 l 522 485 l 189 485 l 189 0 l 100 0 l 100 1001 z "},"G":{"ha":957,"x_min":60,"x_max":856,"o":"m 796 886 l 749 904 q 563 936 653 936 q 270 817 381 936 q 160 501 160 699 q 275 185 160 303 q 582 67 390 67 q 678 75 638 67 q 769 106 719 83 l 767 540 l 856 540 l 856 53 l 810 33 q 569 -12 694 -12 q 201 129 343 -12 q 60 499 60 271 q 200 875 60 731 q 567 1019 340 1019 q 639 1015 603 1019 q 708 1003 675 1011 q 761 989 740 996 q 831 964 782 982 l 796 886 z "},"H":{"ha":890,"x_min":100,"x_max":790,"o":"m 100 1001 l 189 1001 l 189 564 l 700 564 l 700 1001 l 790 1001 l 790 0 l 700 0 l 700 482 l 190 482 l 190 0 l 100 0 l 100 1001 z "},"I":{"ha":290,"x_min":100,"x_max":190,"o":"m 100 1001 l 190 1001 l 190 0 l 100 0 l 100 1001 z "},"J":{"ha":407,"x_min":-40,"x_max":307,"o":"m -3 94 q 85 76 43 76 q 218 265 218 76 l 218 1001 l 307 1001 l 307 294 l 307 254 q 307 225 307 239 q 304 206 304 210 q 244 51 304 108 q 86 -7 183 -7 q 23 -3 46 -7 q -40 18 0 1 l -3 94 z "},"K":{"ha":776,"x_min":100,"x_max":807,"o":"m 100 1001 l 190 1001 l 190 571 l 640 1001 l 767 1001 l 263 526 l 807 0 l 679 0 l 192 482 l 192 0 l 100 0 l 100 1001 z "},"L":{"ha":558,"x_min":100,"x_max":589,"o":"m 100 1001 l 190 1001 l 190 81 l 589 81 l 589 0 l 100 0 l 100 1001 z "},"M":{"ha":1201,"x_min":100,"x_max":1100,"o":"m 100 1001 l 233 1001 l 578 172 l 593 136 q 599 114 597 121 q 600 82 600 107 q 602 123 600 114 q 622 172 604 132 l 968 1001 l 1100 1001 l 1100 0 l 1008 0 l 1011 792 q 1013 856 1011 838 q 1022 925 1014 875 q 995 844 1006 872 q 978 799 985 815 l 638 0 l 563 0 l 222 799 l 178 925 q 185 880 183 894 q 188 847 188 865 l 190 792 l 190 0 l 100 0 l 100 1001 z "},"N":{"ha":913,"x_min":100,"x_max":814,"o":"m 103 1001 l 200 1001 l 696 199 q 740 89 717 160 q 728 174 732 132 q 724 235 724 215 l 724 1001 l 814 1001 l 814 0 l 717 0 l 225 800 q 201 845 214 817 q 171 922 189 874 q 190 811 190 851 l 190 0 l 100 0 l 103 1001 z "},"O":{"ha":999,"x_min":60,"x_max":939,"o":"m 499 1024 q 817 880 696 1024 q 939 503 939 736 q 818 126 939 269 q 500 -17 697 -17 q 181 125 301 -17 q 60 501 60 267 q 181 880 60 736 q 499 1024 301 1024 m 154 503 q 247 181 154 300 q 496 63 339 63 q 747 183 653 63 q 842 504 842 304 q 749 827 842 707 q 499 947 656 947 q 249 826 343 947 q 154 503 154 706 z "},"P":{"ha":656,"x_min":100,"x_max":635,"o":"m 100 1001 l 311 1001 l 386 997 q 567 907 499 983 q 635 718 635 831 q 551 511 635 593 q 338 429 468 429 l 189 429 l 189 0 l 100 0 l 100 1001 m 189 511 l 300 511 q 390 518 356 511 q 459 549 424 525 q 517 616 494 572 q 539 715 539 660 q 494 855 539 803 q 365 915 449 907 q 331 919 354 918 q 283 921 307 921 l 189 921 l 189 511 z "},"Q":{"ha":999,"x_min":60,"x_max":939,"o":"m 878 -51 l 860 -147 l 364 -58 l 378 0 q 142 177 225 47 q 60 500 60 307 q 181 879 60 735 q 499 1024 301 1024 q 817 880 696 1024 q 939 503 939 736 q 851 169 939 278 q 703 33 764 61 q 613 -3 643 4 q 531 -17 582 -11 l 878 -51 m 154 503 q 247 181 154 300 q 496 63 339 63 q 747 183 653 63 q 842 504 842 304 q 749 827 842 707 q 499 947 656 947 q 249 826 343 947 q 154 503 154 706 z "},"R":{"ha":711,"x_min":100,"x_max":722,"o":"m 100 1003 l 310 1003 l 390 999 q 570 915 503 986 q 638 736 638 843 q 588 581 638 646 q 447 486 539 517 q 482 465 475 475 q 549 356 504 446 l 722 0 l 618 0 l 468 317 q 433 385 446 364 q 391 429 419 406 q 294 453 363 453 l 190 453 l 190 0 l 100 0 l 100 1003 m 190 533 l 303 533 q 478 586 415 533 q 540 736 540 639 q 315 922 540 922 l 190 922 l 190 533 z "},"S":{"ha":649,"x_min":44,"x_max":597,"o":"m 497 906 q 353 933 426 933 q 200 888 257 933 q 143 765 143 842 q 182 669 143 704 q 238 623 203 646 q 347 561 274 600 l 426 517 q 536 440 475 489 q 597 276 597 392 q 506 69 597 151 q 275 -14 415 -14 q 221 -10 247 -14 q 162 1 194 -7 q 103 19 129 10 q 44 44 78 28 l 93 119 q 278 72 190 72 q 439 126 376 72 q 501 267 501 181 q 472 363 501 326 q 356 447 442 400 l 276 493 l 193 540 q 80 642 115 589 q 44 763 44 694 q 129 946 44 875 q 350 1017 214 1017 q 538 978 439 1017 l 497 906 z "},"T":{"ha":604,"x_min":-40,"x_max":643,"o":"m -40 1001 l 643 1001 l 643 921 l 347 921 l 347 0 l 258 0 l 258 921 l -40 921 l -40 1001 z "},"U":{"ha":911,"x_min":100,"x_max":811,"o":"m 811 342 q 713 85 811 183 q 456 -14 614 -14 q 199 85 297 -14 q 100 342 100 183 l 100 1001 l 190 1001 l 190 357 q 261 144 190 221 q 456 68 332 68 q 650 144 579 68 q 721 357 721 221 l 721 1001 l 811 1001 l 811 342 z "},"V":{"ha":760,"x_min":-40,"x_max":800,"o":"m 56 1001 l 347 226 l 360 192 l 363 185 l 381 111 l 397 185 l 414 226 l 706 1001 l 800 1001 l 418 0 l 339 0 l -40 1001 l 56 1001 z "},"W":{"ha":1289,"x_min":-19,"x_max":1308,"o":"m 72 1001 l 308 217 q 324 159 317 186 q 331 93 331 132 q 335 144 331 124 q 342 172 340 164 l 363 235 l 590 1001 l 700 1001 l 926 235 l 944 172 q 957 93 951 150 q 958 141 957 131 q 979 217 960 151 l 1215 1001 l 1308 1001 l 1006 0 l 908 0 l 665 814 q 644 924 650 865 q 636 858 644 888 q 625 814 628 828 l 381 0 l 281 0 l -19 1001 l 72 1001 z "},"X":{"ha":804,"x_min":-19,"x_max":825,"o":"m 354 538 l 22 1001 l 131 1001 l 372 654 q 391 622 385 636 q 403 588 397 607 l 415 624 l 439 654 l 679 1001 l 790 1001 l 453 538 l 825 0 l 718 0 l 440 403 q 424 430 439 406 q 403 471 408 454 q 386 432 392 444 q 368 404 381 419 l 88 0 l -19 0 l 354 538 z "},"Y":{"ha":757,"x_min":-40,"x_max":797,"o":"m 67 1001 l 344 582 l 360 557 q 385 507 371 540 q 398 542 394 533 q 410 561 401 550 l 431 593 l 690 1001 l 797 1001 l 429 439 l 429 0 l 339 0 l 339 440 l -40 1001 l 67 1001 z "},"Z":{"ha":708,"x_min":35,"x_max":672,"o":"m 35 68 l 517 853 q 528 872 521 863 q 538 885 536 882 l 571 928 q 531 922 547 924 q 486 921 515 921 l 49 919 l 49 1001 l 658 1001 l 658 918 l 174 132 q 115 71 154 100 q 217 79 181 79 l 672 81 l 672 0 l 35 0 l 35 68 z "},"[":{"ha":285,"x_min":100,"x_max":275,"o":"m 100 1092 l 274 1092 l 274 1011 l 190 1011 l 190 -6 l 275 -6 l 275 -87 l 100 -87 l 100 1092 z "},"\\":{"ha":429,"x_min":74,"x_max":324,"o":"m 149 1000 l 324 0 l 249 0 l 74 1000 l 149 1000 z "},"]":{"ha":285,"x_min":11,"x_max":185,"o":"m 185 1092 l 185 -87 l 13 -87 l 13 -6 l 94 -6 l 94 1011 l 11 1013 l 11 1092 l 185 1092 z "},"^":{"ha":474,"x_min":1,"x_max":471,"o":"m 239 1044 l 471 885 l 418 804 l 238 940 l 53 815 l 1 886 l 239 1044 z "},"_":{"ha":700,"x_min":74,"x_max":574,"o":"m 74 0 l 574 0 l 574 -35 l 74 -35 l 74 0 z "},"`":{"ha":365,"x_min":0,"x_max":263,"o":"m 71 1076 l 263 863 l 207 807 l 0 1004 l 71 1076 z "},"a":{"ha":700,"x_min":50,"x_max":599,"o":"m 521 493 q 472 626 521 578 q 340 675 424 675 q 260 664 299 675 q 160 619 222 653 l 118 688 q 340 753 229 753 q 529 689 460 753 q 599 513 599 625 l 599 1 l 518 1 l 521 107 q 283 -12 429 -12 q 115 47 181 -12 q 50 204 50 107 q 122 372 50 321 q 262 439 193 422 q 442 456 331 456 l 518 453 l 521 493 m 517 388 l 468 389 q 142 208 142 389 q 186 104 142 144 q 303 64 231 64 q 454 124 392 64 q 517 269 517 183 l 517 388 z "},"b":{"ha":764,"x_min":100,"x_max":704,"o":"m 100 1081 l 185 1081 l 185 626 q 406 754 264 754 q 624 653 543 754 q 704 376 704 551 q 622 97 704 203 q 403 -8 540 -8 q 179 114 256 -8 l 179 0 l 100 0 l 100 1081 m 179 369 q 239 151 179 233 q 400 69 299 69 q 557 151 500 69 q 614 378 614 233 q 558 594 614 515 q 404 674 503 674 q 242 590 304 674 q 179 369 179 507 z "},"c":{"ha":635,"x_min":60,"x_max":615,"o":"m 574 642 q 497 665 531 658 q 424 672 463 672 q 226 590 300 672 q 153 368 153 508 q 226 153 153 233 q 424 72 300 72 q 500 78 468 72 q 581 103 532 83 l 615 29 q 422 -8 515 -8 q 159 94 258 -8 q 60 363 60 196 q 160 646 60 539 q 426 753 260 753 q 613 714 517 753 l 574 642 z "},"d":{"ha":774,"x_min":60,"x_max":674,"o":"m 586 1081 l 674 1081 l 674 0 l 593 0 l 592 131 q 360 -12 519 -12 q 142 88 224 -12 q 60 358 60 189 q 144 645 60 538 q 367 753 228 753 q 492 724 440 753 q 586 628 544 694 l 586 1081 m 151 369 q 208 147 151 226 q 367 68 264 68 q 529 149 468 68 q 590 368 590 231 q 529 589 590 507 q 365 671 468 671 q 209 590 267 671 q 151 369 151 508 z "},"e":{"ha":721,"x_min":60,"x_max":664,"o":"m 150 347 q 231 146 161 217 q 419 75 300 75 q 586 114 493 75 l 619 42 l 578 22 q 408 -8 494 -8 q 156 94 251 -8 q 60 367 60 197 q 149 644 60 535 q 375 754 238 754 q 586 658 508 754 q 664 397 664 563 l 661 347 l 150 347 m 154 425 l 574 425 q 521 607 574 542 q 374 672 468 672 q 224 606 283 672 q 154 425 165 540 z "},"f":{"ha":317,"x_min":-19,"x_max":407,"o":"m -19 740 l 106 740 l 106 868 q 114 953 106 919 q 161 1040 122 988 q 313 1093 200 1093 q 407 1075 357 1093 l 374 1004 q 346 1009 358 1007 q 315 1011 333 1011 q 192 864 192 1011 l 192 740 l 369 740 l 369 665 l 193 665 l 193 0 l 107 0 l 107 665 l -19 665 l -19 740 z "},"g":{"ha":775,"x_min":60,"x_max":674,"o":"m 589 740 l 674 740 l 674 7 q 581 -215 674 -131 q 338 -299 489 -299 q 226 -286 276 -299 q 111 -244 175 -274 l 147 -174 l 200 -197 q 338 -219 269 -219 q 521 -156 454 -219 q 588 19 588 -92 l 588 125 q 364 -6 517 -6 q 142 94 225 -6 q 60 363 60 193 q 146 644 60 535 q 369 754 232 754 q 470 735 422 754 q 540 694 518 715 q 572 660 563 672 q 589 633 581 649 l 589 740 m 154 371 q 211 152 154 229 q 372 75 268 75 q 533 156 475 75 q 592 378 592 236 q 533 594 592 515 q 372 672 475 672 q 213 592 271 672 q 154 371 154 511 z "},"h":{"ha":761,"x_min":100,"x_max":661,"o":"m 100 1081 l 188 1081 l 188 633 q 408 756 275 756 q 589 685 517 756 q 661 506 661 614 l 661 0 l 572 0 l 574 488 q 526 621 574 571 q 400 671 479 671 q 247 603 306 671 q 188 421 188 536 l 188 0 l 100 0 l 100 1081 z "},"i":{"ha":289,"x_min":90,"x_max":199,"o":"m 100 740 l 188 740 l 188 0 l 100 0 l 100 740 m 90 1001 l 199 1001 l 199 846 l 90 846 l 90 1001 z "},"j":{"ha":296,"x_min":-64,"x_max":196,"o":"m -39 -207 q 3 -217 -17 -217 q 103 -92 103 -217 l 103 740 l 189 740 l 189 -90 q 13 -299 189 -299 q -64 -282 -18 -299 l -39 -207 m 90 1001 l 196 1001 l 196 847 l 90 847 l 90 1001 z "},"k":{"ha":650,"x_min":100,"x_max":671,"o":"m 100 1081 l 186 1081 l 186 469 l 501 740 l 628 740 l 240 415 l 671 0 l 549 0 l 186 360 l 186 0 l 100 0 l 100 1081 z "},"l":{"ha":286,"x_min":100,"x_max":186,"o":"m 100 1081 l 186 1081 l 186 0 l 100 0 l 100 1081 z "},"m":{"ha":1146,"x_min":100,"x_max":1047,"o":"m 100 740 l 178 740 l 178 636 q 389 754 268 754 q 542 703 506 754 q 585 642 579 651 q 596 614 590 632 q 817 754 692 754 q 927 726 874 754 q 1006 660 981 699 q 1039 588 1031 621 q 1047 499 1047 556 l 1047 0 l 958 0 l 960 493 l 956 557 q 906 639 946 607 q 811 671 867 671 q 726 649 768 671 q 659 591 685 626 q 626 519 633 556 q 618 401 618 482 l 618 0 l 533 0 l 533 478 l 531 538 q 483 637 524 600 q 381 674 443 674 q 242 617 278 674 q 196 517 206 561 q 186 403 186 472 l 186 0 l 100 0 l 100 740 z "},"n":{"ha":757,"x_min":100,"x_max":656,"o":"m 100 740 l 178 740 l 178 626 q 278 724 225 693 q 400 754 331 754 q 584 681 513 754 q 656 494 656 608 l 656 0 l 569 0 l 569 481 q 524 622 569 571 q 396 674 478 674 q 309 654 351 674 q 238 601 267 635 q 197 531 208 567 q 186 432 186 496 l 186 0 l 100 0 l 100 740 z "},"o":{"ha":790,"x_min":60,"x_max":729,"o":"m 394 757 q 637 651 544 757 q 729 372 729 544 q 638 93 729 200 q 394 -14 546 -14 q 152 92 244 -14 q 60 372 60 199 q 152 651 60 544 q 394 757 244 757 m 147 372 q 215 152 147 236 q 394 68 283 68 q 574 151 506 68 q 642 372 642 235 q 574 593 642 508 q 394 678 506 678 q 215 594 283 678 q 147 372 147 510 z "},"p":{"ha":775,"x_min":100,"x_max":715,"o":"m 100 740 l 185 740 l 185 615 q 411 753 264 753 q 632 649 549 753 q 715 372 715 544 q 632 94 715 201 q 413 -12 549 -12 q 188 122 260 -12 l 188 -281 l 100 -281 l 100 740 m 182 371 q 243 150 182 233 q 407 67 304 67 q 565 148 507 67 q 624 369 624 229 q 565 589 624 507 q 408 671 507 671 q 244 589 307 671 q 182 371 182 507 z "},"q":{"ha":776,"x_min":60,"x_max":675,"o":"m 590 740 l 675 740 l 675 -281 l 590 -281 l 590 118 q 365 -14 519 -14 q 144 90 228 -14 q 60 363 60 193 q 142 647 60 542 q 365 753 224 753 q 501 721 442 753 q 590 629 560 689 l 590 740 m 151 368 q 210 144 151 225 q 371 63 268 63 q 535 146 474 63 q 596 369 596 229 q 533 590 596 507 q 368 674 471 674 q 210 592 268 674 q 151 368 151 510 z "},"r":{"ha":403,"x_min":100,"x_max":447,"o":"m 100 740 l 182 740 l 182 617 q 368 751 244 751 q 410 744 389 751 q 447 729 428 736 l 413 644 q 363 651 381 651 q 231 594 261 651 q 193 499 200 538 q 186 394 186 460 l 186 0 l 100 0 l 100 740 z "},"s":{"ha":554,"x_min":31,"x_max":503,"o":"m 63 111 q 238 69 160 69 q 358 106 311 69 q 406 199 406 142 q 380 269 406 242 q 282 331 354 296 l 247 347 q 110 419 174 382 q 47 557 47 456 q 114 700 47 644 q 290 756 181 756 q 478 714 376 756 l 444 636 q 285 671 360 671 q 182 642 221 671 q 143 563 143 613 q 176 492 143 514 q 226 461 208 471 q 307 422 244 451 q 391 378 369 392 q 440 344 413 365 q 503 207 503 293 q 427 49 503 111 q 235 -12 351 -12 q 31 36 133 -12 l 63 111 z "},"t":{"ha":364,"x_min":-19,"x_max":403,"o":"m -19 740 l 107 740 l 107 931 l 193 931 l 193 740 l 354 740 l 354 665 l 193 665 l 193 211 q 218 103 193 133 q 307 72 243 72 q 378 86 339 72 l 403 13 q 347 -3 371 1 q 297 -7 322 -7 q 158 36 192 -7 q 117 114 125 79 q 108 200 108 149 l 108 665 l -19 665 l -19 740 z "},"u":{"ha":756,"x_min":100,"x_max":656,"o":"m 189 744 l 189 293 q 378 67 189 67 q 567 289 567 67 l 568 740 l 656 740 l 656 300 q 621 115 656 175 q 523 19 586 54 q 385 -15 460 -15 q 238 21 306 -15 q 135 117 169 57 q 108 194 117 151 q 100 303 100 236 l 100 744 l 189 744 z "},"v":{"ha":567,"x_min":-11,"x_max":576,"o":"m 85 740 l 254 201 q 271 138 264 168 q 283 82 278 108 q 299 146 292 118 q 314 201 306 174 l 482 740 l 576 740 l 336 0 l 231 0 l -11 740 l 85 740 z "},"w":{"ha":1072,"x_min":4,"x_max":1067,"o":"m 99 740 l 267 201 q 288 131 283 150 q 293 78 293 111 q 301 138 297 119 q 321 206 306 157 l 494 740 l 579 740 l 749 206 q 769 137 763 164 q 779 78 775 110 q 786 144 779 118 q 804 200 797 175 l 974 740 l 1067 740 l 822 0 l 731 0 l 557 549 q 542 613 547 581 q 536 665 536 644 q 533 613 536 633 q 517 547 531 593 l 339 0 l 247 0 l 4 740 l 99 740 z "},"x":{"ha":615,"x_min":4,"x_max":610,"o":"m 263 389 l 32 740 l 133 740 l 269 536 q 297 490 290 506 q 311 449 304 475 q 317 487 311 474 q 344 535 322 500 l 479 740 l 586 740 l 356 393 l 610 0 l 508 0 l 350 247 q 327 281 332 272 q 319 297 322 289 q 313 322 315 304 q 308 347 310 339 q 299 296 304 307 q 269 246 294 285 l 111 0 l 4 0 l 263 389 z "},"y":{"ha":572,"x_min":-11,"x_max":582,"o":"m 82 742 l 258 206 l 274 160 l 286 93 q 297 160 293 140 q 315 221 301 179 l 489 742 l 582 742 l 283 -144 q 97 -300 229 -300 q 57 -299 71 -300 q 14 -290 43 -297 l 36 -211 q 85 -218 61 -218 q 172 -174 140 -218 q 236 -4 203 -129 l -11 742 l 82 742 z "},"z":{"ha":617,"x_min":35,"x_max":588,"o":"m 35 67 l 436 603 q 469 641 458 631 q 504 668 479 651 l 415 661 l 51 661 l 51 740 l 586 740 l 586 661 l 199 142 q 160 96 174 108 q 114 61 146 83 q 165 75 146 72 q 221 78 183 78 l 588 78 l 588 0 l 35 0 l 35 67 z "},"{":{"ha":449,"x_min":74,"x_max":342,"o":"m 158 599 l 158 1067 q 264 1153 158 1153 l 342 1153 l 342 1110 l 326 1110 q 260 1093 275 1110 q 244 1024 244 1076 l 244 606 q 219 533 244 563 q 153 500 194 504 q 218 467 192 496 q 244 394 244 438 l 244 -24 q 259 -94 244 -78 q 326 -110 274 -110 l 342 -110 l 342 -153 l 264 -153 q 185 -131 211 -153 q 158 -67 158 -108 l 158 401 q 126 483 158 468 q 74 500 94 497 q 135 528 111 500 q 158 599 158 556 z "},"|":{"ha":240,"x_min":74,"x_max":149,"o":"m 74 1000 l 149 1000 l 149 0 l 74 0 l 74 1000 z "},"}":{"ha":449,"x_min":74,"x_max":342,"o":"m 74 -110 l 89 -110 q 156 -93 140 -110 q 171 -24 171 -76 l 171 394 q 196 467 171 438 q 261 500 221 496 q 196 533 221 504 q 171 606 171 563 l 171 1024 q 156 1093 171 1076 q 89 1110 140 1110 l 74 1110 l 74 1153 l 151 1153 q 256 1067 256 1153 l 256 599 q 279 528 256 556 q 342 500 303 500 q 288 483 319 497 q 256 401 256 468 l 256 -67 q 151 -153 256 -153 l 74 -153 l 74 -110 z "},"~":{"ha":447,"x_min":1,"x_max":447,"o":"m 3 1174 q 96 1189 54 1189 q 175 1179 131 1189 l 238 1165 q 290 1156 265 1158 q 332 1153 314 1153 q 390 1160 364 1153 q 447 1183 415 1167 l 446 1085 q 333 1063 385 1063 q 287 1065 306 1063 q 228 1075 268 1067 l 165 1089 q 136 1093 153 1092 q 106 1094 119 1094 q 1 1078 56 1094 l 3 1174 z "},"Ä":{"ha":874,"x_min":-19,"x_max":893,"o":"m 263 1183 l 365 1183 l 365 1038 l 263 1038 l 263 1183 m 524 1183 l 626 1183 l 626 1036 l 524 1036 l 524 1183 m 397 1001 l 493 1001 l 893 0 l 794 0 l 685 276 l 193 276 l 81 0 l -19 0 l 397 1001 m 224 356 l 658 356 l 469 831 l 456 867 q 448 890 451 876 q 444 926 444 904 q 440 893 443 908 q 433 867 438 878 l 419 831 l 224 356 z "},"Å":{"ha":874,"x_min":-19,"x_max":893,"o":"m 442 1335 q 536 1296 497 1335 q 575 1199 575 1257 q 536 1101 575 1142 q 442 1061 497 1061 q 347 1102 386 1061 q 307 1200 307 1143 q 346 1296 307 1257 q 442 1335 385 1335 m 397 1001 l 493 1001 l 893 0 l 794 0 l 685 276 l 193 276 l 81 0 l -19 0 l 397 1001 m 442 1126 q 488 1144 469 1126 q 506 1190 506 1163 q 488 1236 506 1217 q 443 1256 469 1256 q 397 1237 415 1256 q 378 1190 378 1218 q 397 1145 378 1164 q 442 1126 415 1126 m 224 356 l 658 356 l 469 831 l 456 867 q 448 890 451 876 q 444 926 444 904 q 440 893 443 908 q 433 867 438 878 l 419 831 l 224 356 z "},"Ç":{"ha":842,"x_min":43,"x_max":797,"o":"m 767 889 q 547 932 656 932 q 251 815 361 932 q 140 500 140 697 q 253 188 140 306 q 551 69 365 69 q 652 78 604 69 q 760 108 700 86 l 786 31 q 554 -12 665 -12 q 183 126 324 -12 q 43 496 43 265 q 166 856 43 750 q 365 988 289 961 q 542 1014 440 1014 q 674 1003 619 1014 q 797 963 729 992 l 767 889 m 471 -11 l 551 -67 l 394 -246 l 333 -200 l 471 -11 z "},"É":{"ha":626,"x_min":100,"x_max":586,"o":"m 100 1001 l 567 1001 l 567 921 l 190 921 l 190 558 l 529 558 l 529 478 l 190 478 l 190 81 l 586 81 l 586 0 l 100 0 l 100 1001 m 425 1383 l 494 1313 l 283 1111 l 231 1167 l 425 1383 z "},"Ñ":{"ha":913,"x_min":100,"x_max":814,"o":"m 103 1001 l 200 1001 l 696 199 q 740 89 717 160 q 728 174 732 132 q 724 235 724 215 l 724 1001 l 814 1001 l 814 0 l 717 0 l 225 800 q 201 845 214 817 q 171 922 189 874 q 190 811 190 851 l 190 0 l 100 0 l 103 1001 m 344 1219 q 360 1219 354 1219 q 410 1213 367 1219 l 467 1201 q 544 1193 515 1193 q 657 1225 606 1193 l 660 1138 q 547 1113 601 1113 q 507 1115 531 1113 q 460 1122 483 1118 l 401 1131 q 378 1135 392 1133 q 354 1136 364 1136 q 251 1118 310 1136 l 251 1203 q 344 1219 300 1219 z "},"Ö":{"ha":999,"x_min":60,"x_max":939,"o":"m 267 1193 l 371 1193 l 371 1047 l 267 1047 l 267 1193 m 628 1193 l 731 1193 l 731 1047 l 628 1047 l 628 1193 m 499 1024 q 817 880 696 1024 q 939 503 939 736 q 818 126 939 269 q 500 -17 697 -17 q 181 125 301 -17 q 60 501 60 267 q 181 880 60 736 q 499 1024 301 1024 m 154 503 q 247 181 154 300 q 496 63 339 63 q 747 183 653 63 q 842 504 842 304 q 749 827 842 707 q 499 947 656 947 q 249 826 343 947 q 154 503 154 706 z "},"Ü":{"ha":911,"x_min":100,"x_max":811,"o":"m 285 1178 l 386 1178 l 386 1033 l 285 1033 l 285 1178 m 525 1178 l 626 1178 l 626 1033 l 525 1033 l 525 1178 m 811 342 q 713 85 811 183 q 456 -14 614 -14 q 199 85 297 -14 q 100 342 100 183 l 100 1001 l 190 1001 l 190 357 q 261 144 190 221 q 456 68 332 68 q 650 144 579 68 q 721 357 721 221 l 721 1001 l 811 1001 l 811 342 z "},"á":{"ha":700,"x_min":50,"x_max":599,"o":"m 521 493 q 472 626 521 578 q 340 675 424 675 q 260 664 299 675 q 160 619 222 653 l 118 688 q 340 753 229 753 q 529 689 460 753 q 599 513 599 625 l 599 1 l 518 1 l 521 107 q 283 -12 429 -12 q 115 47 181 -12 q 50 204 50 107 q 122 372 50 321 q 262 439 193 422 q 442 456 331 456 l 518 453 l 521 493 m 517 388 l 468 389 q 142 208 142 389 q 186 104 142 144 q 303 64 231 64 q 454 124 392 64 q 517 269 517 183 l 517 388 m 463 1074 l 532 1003 l 321 801 l 268 857 l 463 1074 z "},"à":{"ha":700,"x_min":50,"x_max":599,"o":"m 521 493 q 472 626 521 578 q 340 675 424 675 q 260 664 299 675 q 160 619 222 653 l 118 688 q 340 753 229 753 q 529 689 460 753 q 599 513 599 625 l 599 1 l 518 1 l 521 107 q 283 -12 429 -12 q 115 47 181 -12 q 50 204 50 107 q 122 372 50 321 q 262 439 193 422 q 442 456 331 456 l 518 453 l 521 493 m 517 388 l 468 389 q 142 208 142 389 q 186 104 142 144 q 303 64 231 64 q 454 124 392 64 q 517 269 517 183 l 517 388 m 238 1076 l 429 863 l 374 807 l 167 1004 l 238 1076 z "},"â":{"ha":700,"x_min":50,"x_max":599,"o":"m 521 493 q 472 626 521 578 q 340 675 424 675 q 260 664 299 675 q 160 619 222 653 l 118 688 q 340 753 229 753 q 529 689 460 753 q 599 513 599 625 l 599 1 l 518 1 l 521 107 q 283 -12 429 -12 q 115 47 181 -12 q 50 204 50 107 q 122 372 50 321 q 262 439 193 422 q 442 456 331 456 l 518 453 l 521 493 m 517 388 l 468 389 q 142 208 142 389 q 186 104 142 144 q 303 64 231 64 q 454 124 392 64 q 517 269 517 183 l 517 388 m 351 1044 l 583 885 l 531 804 l 350 940 l 165 815 l 114 886 l 351 1044 z "},"ä":{"ha":700,"x_min":50,"x_max":599,"o":"m 169 981 l 276 981 l 276 828 l 169 828 l 169 981 m 408 981 l 515 981 l 515 828 l 408 828 l 408 981 m 521 493 q 472 626 521 578 q 340 675 424 675 q 260 664 299 675 q 160 619 222 653 l 118 688 q 340 753 229 753 q 529 689 460 753 q 599 513 599 625 l 599 1 l 518 1 l 521 107 q 283 -12 429 -12 q 115 47 181 -12 q 50 204 50 107 q 122 372 50 321 q 262 439 193 422 q 442 456 331 456 l 518 453 l 521 493 m 517 388 l 468 389 q 142 208 142 389 q 186 104 142 144 q 303 64 231 64 q 454 124 392 64 q 517 269 517 183 l 517 388 z "},"ã":{"ha":700,"x_min":50,"x_max":599,"o":"m 521 493 q 472 626 521 578 q 340 675 424 675 q 260 664 299 675 q 160 619 222 653 l 118 688 q 340 753 229 753 q 529 689 460 753 q 599 513 599 625 l 599 1 l 518 1 l 521 107 q 283 -12 429 -12 q 115 47 181 -12 q 50 204 50 107 q 122 372 50 321 q 262 439 193 422 q 442 456 331 456 l 518 453 l 521 493 m 517 388 l 468 389 q 142 208 142 389 q 186 104 142 144 q 303 64 231 64 q 454 124 392 64 q 517 269 517 183 l 517 388 m 239 910 q 255 910 249 910 q 304 903 261 910 l 361 892 q 439 883 410 883 q 551 915 500 883 l 554 828 q 442 803 496 803 q 401 806 425 803 q 354 813 378 808 l 296 821 q 272 825 286 824 q 249 826 258 826 q 146 808 204 826 l 146 893 q 239 910 194 910 z "},"å":{"ha":700,"x_min":50,"x_max":599,"o":"m 519 483 q 338 674 519 674 q 273 667 300 674 q 219 649 246 660 q 165 624 189 633 l 160 619 l 118 688 q 340 753 229 753 q 529 689 460 753 q 599 513 599 625 l 599 1 l 518 1 l 521 107 q 285 -12 429 -12 q 115 48 179 -12 q 50 206 50 108 q 121 372 50 322 q 263 439 192 422 q 443 456 333 456 l 519 453 l 519 483 m 356 1071 q 452 1030 413 1071 q 492 932 492 989 q 453 835 492 875 q 356 794 414 794 q 260 835 300 794 q 219 932 219 875 q 258 1031 219 990 q 356 1071 297 1071 m 478 389 q 353 381 411 389 q 249 356 296 372 q 172 299 201 339 q 142 208 142 260 q 185 104 142 142 q 303 67 228 67 q 456 125 394 67 q 517 269 517 183 l 517 388 l 478 389 m 292 932 q 310 886 292 904 q 356 868 328 868 q 402 887 383 868 q 421 933 421 906 q 403 979 421 960 q 357 999 385 999 q 311 979 331 999 q 292 932 292 960 z "},"ç":{"ha":643,"x_min":43,"x_max":599,"o":"m 557 642 q 480 665 514 658 q 407 672 446 672 q 210 590 283 672 q 136 368 136 508 q 210 153 136 233 q 407 72 283 72 q 483 78 451 72 q 564 103 515 83 l 599 29 q 406 -8 499 -8 q 142 94 242 -8 q 43 363 43 196 q 143 646 43 539 q 410 753 243 753 q 596 714 503 753 l 557 642 m 356 -19 l 436 -75 l 279 -256 l 218 -208 l 356 -19 z "},"é":{"ha":721,"x_min":60,"x_max":664,"o":"m 150 347 q 231 146 161 217 q 419 75 300 75 q 586 114 493 75 l 619 42 l 578 22 q 408 -8 494 -8 q 156 94 251 -8 q 60 367 60 197 q 149 644 60 535 q 375 754 238 754 q 586 658 508 754 q 664 397 664 563 l 661 347 l 150 347 m 154 425 l 574 425 q 521 607 574 542 q 374 672 468 672 q 224 606 283 672 q 154 425 165 540 m 472 1074 l 542 1003 l 331 801 l 278 857 l 472 1074 z "},"è":{"ha":721,"x_min":60,"x_max":664,"o":"m 150 347 q 231 146 161 217 q 419 75 300 75 q 586 114 493 75 l 619 42 l 578 22 q 408 -8 494 -8 q 156 94 251 -8 q 60 367 60 197 q 149 644 60 535 q 375 754 238 754 q 586 658 508 754 q 664 397 664 563 l 661 347 l 150 347 m 154 425 l 574 425 q 521 607 574 542 q 374 672 468 672 q 224 606 283 672 q 154 425 165 540 m 249 1076 l 440 863 l 385 807 l 178 1004 l 249 1076 z "},"ê":{"ha":721,"x_min":60,"x_max":664,"o":"m 150 347 q 231 146 161 217 q 419 75 300 75 q 586 114 493 75 l 619 42 l 578 22 q 408 -8 494 -8 q 156 94 251 -8 q 60 367 60 197 q 149 644 60 535 q 375 754 238 754 q 586 658 508 754 q 664 397 664 563 l 661 347 l 150 347 m 154 425 l 574 425 q 521 607 574 542 q 374 672 468 672 q 224 606 283 672 q 154 425 165 540 m 363 1044 l 594 885 l 542 804 l 361 940 l 176 815 l 125 886 l 363 1044 z "},"ë":{"ha":721,"x_min":60,"x_max":664,"o":"m 150 347 q 231 146 161 217 q 419 75 300 75 q 586 114 493 75 l 619 42 l 578 22 q 408 -8 494 -8 q 156 94 251 -8 q 60 367 60 197 q 149 644 60 535 q 375 754 238 754 q 586 658 508 754 q 664 397 664 563 l 661 347 l 150 347 m 154 425 l 574 425 q 521 607 574 542 q 374 672 468 672 q 224 606 283 672 q 154 425 165 540 m 183 969 l 285 969 l 285 815 l 183 815 l 183 969 m 435 969 l 536 969 l 536 817 l 435 817 l 435 969 z "},"í":{"ha":269,"x_min":53,"x_max":317,"o":"m 90 740 l 178 740 l 178 0 l 90 0 l 90 740 m 247 1074 l 317 1003 l 106 801 l 53 857 l 247 1074 z "},"ì":{"ha":269,"x_min":-47,"x_max":215,"o":"m 90 740 l 178 740 l 178 0 l 90 0 l 90 740 m 24 1076 l 215 863 l 160 807 l -47 1004 l 24 1076 z "},"î":{"ha":269,"x_min":-100,"x_max":369,"o":"m 90 740 l 178 740 l 178 0 l 90 0 l 90 740 m 138 1044 l 369 885 l 317 804 l 136 940 l -49 815 l -100 886 l 138 1044 z "},"ï":{"ha":269,"x_min":-42,"x_max":311,"o":"m 90 740 l 178 740 l 178 0 l 90 0 l 90 740 m -42 969 l 60 969 l 60 815 l -42 815 l -42 969 m 210 969 l 311 969 l 311 817 l 210 817 l 210 969 z "},"ñ":{"ha":757,"x_min":100,"x_max":656,"o":"m 100 740 l 178 740 l 178 626 q 278 724 225 693 q 400 754 331 754 q 584 681 513 754 q 656 494 656 608 l 656 0 l 569 0 l 569 481 q 524 622 569 571 q 396 674 478 674 q 309 654 351 674 q 238 601 267 635 q 197 531 208 567 q 186 432 186 496 l 186 0 l 100 0 l 100 740 m 267 910 q 283 910 276 910 q 332 903 289 910 l 389 892 q 467 883 438 883 q 579 915 528 883 l 582 828 q 469 803 524 803 q 429 806 453 803 q 382 813 406 808 l 324 821 q 300 825 314 824 q 276 826 286 826 q 174 808 232 826 l 174 893 q 267 910 222 910 z "},"ó":{"ha":790,"x_min":60,"x_max":729,"o":"m 394 757 q 637 651 544 757 q 729 372 729 544 q 638 93 729 200 q 394 -14 546 -14 q 152 92 244 -14 q 60 372 60 199 q 152 651 60 544 q 394 757 244 757 m 147 372 q 215 152 147 236 q 394 68 283 68 q 574 151 506 68 q 642 372 642 235 q 574 593 642 508 q 394 678 506 678 q 215 594 283 678 q 147 372 147 510 m 507 1074 l 576 1003 l 365 801 l 313 857 l 507 1074 z "},"ò":{"ha":790,"x_min":60,"x_max":729,"o":"m 394 757 q 637 651 544 757 q 729 372 729 544 q 638 93 729 200 q 394 -14 546 -14 q 152 92 244 -14 q 60 372 60 199 q 152 651 60 544 q 394 757 244 757 m 147 372 q 215 152 147 236 q 394 68 283 68 q 574 151 506 68 q 642 372 642 235 q 574 593 642 508 q 394 678 506 678 q 215 594 283 678 q 147 372 147 510 m 283 1076 l 475 863 l 419 807 l 213 1004 l 283 1076 z "},"ô":{"ha":790,"x_min":60,"x_max":729,"o":"m 394 757 q 637 651 544 757 q 729 372 729 544 q 638 93 729 200 q 394 -14 546 -14 q 152 92 244 -14 q 60 372 60 199 q 152 651 60 544 q 394 757 244 757 m 147 372 q 215 152 147 236 q 394 68 283 68 q 574 151 506 68 q 642 372 642 235 q 574 593 642 508 q 394 678 506 678 q 215 594 283 678 q 147 372 147 510 m 397 1044 l 629 885 l 576 804 l 396 940 l 211 815 l 160 886 l 397 1044 z "},"ö":{"ha":790,"x_min":60,"x_max":729,"o":"m 217 981 l 317 981 l 317 826 l 217 826 l 217 981 m 471 981 l 574 981 l 574 826 l 471 826 l 471 981 m 394 757 q 637 651 544 757 q 729 372 729 544 q 638 93 729 200 q 394 -14 546 -14 q 152 92 244 -14 q 60 372 60 199 q 152 651 60 544 q 394 757 244 757 m 147 372 q 215 152 147 236 q 394 68 283 68 q 574 151 506 68 q 642 372 642 235 q 574 593 642 508 q 394 678 506 678 q 215 594 283 678 q 147 372 147 510 z "},"õ":{"ha":790,"x_min":60,"x_max":729,"o":"m 394 757 q 637 651 544 757 q 729 372 729 544 q 638 93 729 200 q 394 -14 546 -14 q 152 92 244 -14 q 60 372 60 199 q 152 651 60 544 q 394 757 244 757 m 147 372 q 215 152 147 236 q 394 68 283 68 q 574 151 506 68 q 642 372 642 235 q 574 593 642 508 q 394 678 506 678 q 215 594 283 678 q 147 372 147 510 m 283 910 q 299 910 293 910 q 349 903 306 910 l 406 892 q 483 883 454 883 q 596 915 544 883 l 599 828 q 486 803 540 803 q 446 806 469 803 q 399 813 422 808 l 340 821 q 317 825 331 824 q 293 826 303 826 q 190 808 249 826 l 190 893 q 283 910 239 910 z "},"ú":{"ha":756,"x_min":100,"x_max":656,"o":"m 189 744 l 189 293 q 378 67 189 67 q 567 289 567 67 l 568 740 l 656 740 l 656 300 q 621 115 656 175 q 523 19 586 54 q 385 -15 460 -15 q 238 21 306 -15 q 135 117 169 57 q 108 194 117 151 q 100 303 100 236 l 100 744 l 189 744 m 490 1074 l 560 1003 l 349 801 l 296 857 l 490 1074 z "},"ù":{"ha":756,"x_min":100,"x_max":656,"o":"m 189 744 l 189 293 q 378 67 189 67 q 567 289 567 67 l 568 740 l 656 740 l 656 300 q 621 115 656 175 q 523 19 586 54 q 385 -15 460 -15 q 238 21 306 -15 q 135 117 169 57 q 108 194 117 151 q 100 303 100 236 l 100 744 l 189 744 m 265 1076 l 457 863 l 401 807 l 194 1004 l 265 1076 z "},"û":{"ha":756,"x_min":100,"x_max":656,"o":"m 189 744 l 189 293 q 378 67 189 67 q 567 289 567 67 l 568 740 l 656 740 l 656 300 q 621 115 656 175 q 523 19 586 54 q 385 -15 460 -15 q 238 21 306 -15 q 135 117 169 57 q 108 194 117 151 q 100 303 100 236 l 100 744 l 189 744 m 379 1044 l 611 885 l 558 804 l 378 940 l 193 815 l 142 886 l 379 1044 z "},"ü":{"ha":756,"x_min":100,"x_max":656,"o":"m 203 981 l 301 981 l 301 826 l 203 826 l 203 981 m 453 981 l 554 981 l 554 826 l 453 826 l 453 981 m 189 744 l 189 293 q 378 67 189 67 q 567 289 567 67 l 568 740 l 656 740 l 656 300 q 621 115 656 175 q 523 19 586 54 q 385 -15 460 -15 q 238 21 306 -15 q 135 117 169 57 q 108 194 117 151 q 100 303 100 236 l 100 744 l 189 744 z "},"†":{"ha":769,"x_min":31,"x_max":739,"o":"m 31 708 l 336 708 l 336 1015 l 433 1015 l 433 708 l 739 708 l 739 613 l 432 613 l 432 -304 l 335 -304 l 335 613 l 31 613 l 31 708 z "},"¢":{"ha":635,"x_min":60,"x_max":615,"o":"m 363 825 l 442 825 l 442 751 q 498 748 476 751 q 550 736 519 744 l 613 714 l 574 642 l 515 661 q 481 669 492 667 q 443 674 469 671 l 443 74 q 483 76 468 74 q 516 83 497 78 q 545 90 535 88 q 581 103 556 92 l 615 29 l 540 4 q 501 -3 522 0 q 443 -8 481 -6 l 444 -92 l 364 -92 l 364 -7 q 138 115 215 21 q 60 363 60 210 q 142 629 60 556 q 264 721 224 703 q 363 744 304 739 l 363 825 m 364 669 q 208 569 264 649 q 153 367 153 490 q 364 78 153 118 l 364 669 z "},"£":{"ha":717,"x_min":60,"x_max":686,"o":"m 60 79 l 85 79 q 194 129 154 79 q 235 265 235 179 q 225 335 235 303 q 186 432 215 367 l 182 442 l 85 442 l 85 519 l 154 519 q 71 757 71 617 q 151 944 71 868 q 353 1021 232 1021 q 599 958 468 1021 l 567 888 q 381 933 456 933 q 233 881 294 933 q 171 754 171 828 q 195 624 171 690 q 256 519 219 557 l 571 519 l 571 442 l 283 442 q 326 278 326 346 q 307 163 326 210 q 244 79 288 115 l 686 79 l 686 0 l 60 0 l 60 79 z "},"§":{"ha":771,"x_min":58,"x_max":710,"o":"m 156 808 q 225 960 156 900 q 403 1019 294 1019 q 581 957 506 1019 q 619 902 606 933 q 642 815 633 871 l 547 804 q 503 906 539 874 q 392 938 467 938 q 295 903 333 938 q 257 818 257 869 q 403 633 257 719 l 543 550 q 669 442 629 499 q 710 313 710 385 q 664 169 710 239 q 622 125 643 142 q 556 86 601 108 q 626 -86 626 6 q 556 -237 626 -176 q 378 -297 486 -297 q 219 -249 271 -297 q 155 -169 168 -201 q 133 -78 142 -137 l 228 -68 q 242 -125 235 -107 q 284 -177 250 -143 q 389 -211 318 -211 q 490 -178 451 -211 q 529 -87 529 -144 q 393 92 529 13 l 222 189 q 58 428 58 285 q 101 563 58 515 q 162 625 143 611 q 222 658 181 639 q 156 808 156 724 m 290 594 q 156 439 156 551 q 185 352 156 394 q 264 279 214 310 l 489 149 q 546 176 526 163 q 582 214 565 190 q 615 310 615 256 q 587 395 615 358 q 486 476 558 432 l 290 594 z "},"•":{"ha":181,"x_min":40,"x_max":140,"o":"m 40 456 l 140 456 l 140 311 l 40 311 l 40 456 z "},"¶":{"ha":883,"x_min":74,"x_max":743,"o":"m 743 1000 l 743 940 l 331 940 q 192 882 249 940 q 135 738 135 824 q 192 599 135 657 q 331 542 250 542 l 431 542 l 431 885 l 492 885 l 492 0 l 431 0 l 431 482 l 331 482 q 149 557 224 482 q 74 740 74 632 q 149 924 74 847 q 331 1000 224 1000 l 743 1000 m 589 885 l 650 885 l 650 0 l 589 0 l 589 885 z "},"ß":{"ha":749,"x_min":100,"x_max":711,"o":"m 100 757 q 120 918 100 847 q 215 1043 140 989 q 390 1097 290 1097 q 575 1033 501 1097 q 649 874 649 969 q 627 781 649 819 q 543 686 606 743 l 511 654 q 485 610 485 629 q 496 583 485 594 q 552 544 507 572 q 624 492 597 515 q 681 428 651 469 q 711 299 711 388 q 623 73 711 157 q 383 -11 535 -11 q 282 -1 342 -11 l 282 82 q 327 73 300 78 q 385 68 354 68 q 497 90 453 68 q 576 167 540 113 q 611 293 611 222 q 531 444 611 389 l 463 492 q 389 603 389 539 q 451 717 389 650 l 503 765 q 553 875 553 818 q 506 979 553 939 q 386 1019 460 1019 q 240 952 293 1019 q 188 765 188 885 l 188 0 l 100 0 l 100 757 z "},"®":{"ha":1294,"x_min":81,"x_max":1117,"o":"m 599 1019 q 965 868 814 1019 q 1117 501 1117 717 q 965 135 1117 286 q 599 -17 814 -17 q 232 135 383 -17 q 81 501 81 286 q 232 868 81 717 q 599 1019 383 1019 m 276 172 q 426 73 342 107 q 599 39 510 39 q 772 73 688 39 q 921 173 856 107 q 1020 325 986 239 q 1054 503 1054 411 q 1020 678 1054 593 q 921 829 986 763 q 772 930 856 896 q 599 964 689 964 q 426 930 510 964 q 276 829 342 896 q 176 678 211 763 q 142 501 142 594 q 176 324 142 408 q 276 172 211 239 m 444 843 l 586 843 q 733 804 685 843 q 788 722 781 765 q 794 660 794 679 q 752 542 794 589 q 636 488 710 496 l 611 486 l 826 172 l 743 172 l 515 511 l 515 172 l 444 172 l 444 843 m 572 531 q 724 656 724 531 q 688 751 724 718 q 583 783 653 783 l 515 783 l 515 531 l 572 531 z "},"©":{"ha":1294,"x_min":81,"x_max":1117,"o":"m 599 1019 q 965 868 814 1019 q 1117 501 1117 717 q 965 135 1117 286 q 599 -17 814 -17 q 232 135 383 -17 q 81 501 81 286 q 232 868 81 717 q 599 1019 383 1019 m 276 172 q 426 73 342 107 q 599 39 510 39 q 772 73 688 39 q 921 173 856 107 q 1020 325 986 239 q 1054 503 1054 411 q 1020 678 1054 593 q 921 829 986 763 q 772 930 856 896 q 599 964 689 964 q 426 930 510 964 q 276 829 342 896 q 176 678 211 763 q 142 501 142 594 q 176 324 142 408 q 276 172 211 239 m 811 711 q 702 774 753 764 q 621 783 651 783 q 438 717 515 783 q 350 584 361 651 q 339 492 339 517 q 420 290 339 369 q 618 210 501 210 q 772 254 699 210 l 810 282 l 846 232 q 741 169 796 190 q 622 147 686 147 q 370 247 472 147 q 268 489 268 346 q 299 639 268 553 q 417 785 331 725 q 617 846 504 846 q 656 846 636 846 q 724 833 672 842 q 847 761 776 824 l 811 711 z "},"™":{"ha":1108,"x_min":74,"x_max":951,"o":"m 74 1000 l 372 1000 l 372 938 l 257 939 l 257 500 l 188 500 l 188 939 l 74 938 l 74 1000 m 456 1017 l 478 1017 l 633 675 l 642 654 l 644 647 q 653 600 653 626 q 655 621 653 610 q 663 649 657 632 l 667 658 l 674 675 l 829 1017 l 851 1017 l 951 500 l 881 500 l 828 801 l 825 819 l 824 825 q 824 847 824 839 q 825 869 824 861 l 819 850 l 813 826 l 807 810 l 804 804 l 661 486 l 646 486 l 503 804 l 499 813 l 494 826 l 482 869 q 483 842 483 858 l 483 825 l 482 819 l 479 801 l 426 500 l 356 500 l 456 1017 z "},"´":{"ha":364,"x_min":100,"x_max":364,"o":"m 294 1074 l 364 1003 l 153 801 l 100 857 l 294 1074 z "},"¨":{"ha":293,"x_min":-31,"x_max":322,"o":"m -31 969 l 71 969 l 71 815 l -31 815 l -31 969 m 221 969 l 322 969 l 322 817 l 221 817 l 221 969 z "},"≠":{"ha":825,"x_min":63,"x_max":700,"o":"m 574 467 l 700 467 l 700 378 l 493 378 l 392 278 l 700 278 l 700 189 l 310 189 l 146 25 l 86 86 l 189 189 l 63 189 l 63 278 l 271 278 l 372 378 l 63 378 l 63 467 l 453 467 l 617 631 l 678 569 l 574 467 z "},"Æ":{"ha":1168,"x_min":-19,"x_max":1128,"o":"m 400 1001 l 1110 1001 l 1110 918 l 519 918 l 668 560 l 1086 560 l 1086 476 l 701 476 l 860 82 l 1128 85 l 1128 0 l 797 -3 l 686 272 l 192 272 l 78 0 l -19 0 l 400 1001 m 228 356 l 653 356 l 474 801 l 461 832 q 452 858 457 842 q 443 892 447 875 l 424 833 l 411 801 l 228 356 z "},"Ø":{"ha":999,"x_min":60,"x_max":939,"o":"m 151 165 l 133 192 q 81 338 100 254 q 61 503 61 421 q 92 701 61 601 q 174 871 122 800 q 313 983 226 942 q 500 1024 400 1024 q 654 997 599 1024 q 726 960 710 971 q 776 919 743 949 l 869 1029 l 936 974 l 836 853 l 865 810 q 939 504 939 675 q 818 128 939 272 q 501 -17 697 -17 q 339 13 406 -17 q 210 96 272 42 l 124 -7 l 60 50 l 151 165 m 261 164 q 365 88 311 113 q 494 64 419 64 q 751 183 658 64 q 844 513 844 301 q 831 647 844 593 q 774 783 817 701 l 261 164 m 728 853 q 684 891 701 878 q 621 926 667 904 q 496 947 575 947 q 244 828 338 947 q 151 503 151 708 q 217 233 151 360 l 728 853 z "},"∞":{"ha":1071,"x_min":74,"x_max":915,"o":"m 508 331 q 409 201 463 244 q 290 158 356 158 q 136 231 199 158 q 74 414 74 304 q 131 601 74 529 q 276 672 188 672 q 391 631 342 672 q 482 500 440 590 q 578 629 525 586 q 700 672 632 672 q 851 599 788 672 q 915 417 915 525 q 859 230 915 301 q 714 158 803 158 q 597 200 650 158 q 508 331 547 243 m 458 454 q 376 551 422 518 q 271 583 331 583 q 154 535 200 583 q 108 410 108 486 q 149 287 108 335 q 256 239 190 239 q 355 283 311 239 q 458 454 399 326 m 532 376 q 613 279 564 314 q 719 247 661 247 q 837 296 792 247 q 882 421 882 344 q 840 545 882 499 q 729 592 799 592 q 631 542 678 592 q 532 376 583 492 z "},"±":{"ha":825,"x_min":61,"x_max":703,"o":"m 703 26 l 61 26 l 61 121 l 703 121 l 703 26 m 429 460 l 703 460 l 703 365 l 429 365 l 429 196 l 335 196 l 335 365 l 61 365 l 61 460 l 335 460 l 335 629 l 429 629 l 429 460 z "},"≤":{"ha":825,"x_min":60,"x_max":703,"o":"m 703 25 l 60 25 l 60 119 l 703 119 l 703 25 m 225 389 l 703 240 l 703 143 l 61 344 l 61 435 l 703 636 l 703 539 l 225 389 z "},"≥":{"ha":825,"x_min":60,"x_max":703,"o":"m 703 25 l 60 25 l 60 119 l 703 119 l 703 25 m 703 344 l 60 143 l 60 240 l 538 389 l 60 539 l 60 636 l 703 435 l 703 344 z "},"¥":{"ha":925,"x_min":43,"x_max":882,"o":"m 150 1001 l 428 582 l 444 557 q 457 531 451 543 q 468 507 463 519 q 494 561 488 553 l 515 593 l 775 1001 l 882 1001 l 563 514 l 836 514 l 836 478 l 538 478 l 514 439 l 513 411 l 836 411 l 836 374 l 511 372 l 514 0 l 424 0 l 424 368 l 86 368 l 86 411 l 424 410 l 424 440 l 400 474 l 86 474 l 86 513 l 371 513 l 43 1001 l 150 1001 z "},"µ":{"ha":865,"x_min":101,"x_max":775,"o":"m 231 213 q 250 81 231 114 q 319 47 269 47 q 451 160 399 47 q 504 443 504 272 l 504 624 l 632 624 l 632 168 q 645 76 632 106 q 685 47 658 47 q 728 76 713 47 q 744 161 744 104 l 744 181 l 774 181 l 775 168 l 775 150 q 742 31 775 74 q 650 -12 710 -12 q 545 47 582 -12 q 508 226 508 107 q 423 45 476 103 q 289 -12 369 -12 q 188 24 231 -12 q 132 131 149 61 l 131 92 q 175 -106 131 1 q 219 -232 219 -212 q 204 -275 219 -260 q 161 -290 189 -290 q 115 -267 129 -290 q 101 -193 101 -243 l 104 -112 l 107 11 l 106 151 l 103 283 l 103 624 l 231 624 l 231 213 z "},"∂":{"ha":742,"x_min":86,"x_max":606,"o":"m 497 399 q 506 438 503 418 q 510 481 510 457 l 514 604 q 492 779 514 722 q 426 836 471 836 q 357 788 401 836 q 279 739 313 739 q 244 749 257 739 q 228 783 231 760 q 270 853 228 824 q 369 882 313 882 q 524 807 476 882 q 589 664 572 732 q 606 510 606 596 q 516 133 606 283 q 297 -18 426 -18 q 144 53 203 -18 q 86 243 86 124 q 160 442 86 357 q 333 528 233 528 q 434 497 394 528 q 497 399 474 467 m 356 485 q 236 401 283 485 q 189 178 189 318 q 219 56 189 99 q 306 13 249 13 q 426 99 379 13 q 474 311 474 185 q 444 438 474 392 q 356 485 414 485 z "},"Σ":{"ha":1071,"x_min":50,"x_max":918,"o":"m 858 893 l 879 714 l 818 714 q 700 914 774 860 q 465 968 626 968 l 282 968 l 719 369 l 242 -178 l 501 -178 q 741 -134 671 -178 q 856 28 811 -90 l 918 28 l 876 -153 l 874 -162 q 719 -300 842 -300 l 50 -300 l 590 319 l 69 1033 l 708 1033 q 822 1013 799 1033 q 858 893 846 994 z "},"∏":{"ha":1236,"x_min":42,"x_max":1107,"o":"m 164 -244 l 164 978 l 42 978 l 42 1033 l 1107 1033 l 1107 978 l 985 978 l 985 -244 l 1107 -244 l 1107 -300 l 740 -300 l 740 -244 l 857 -244 l 857 978 l 292 978 l 292 -244 l 408 -244 l 408 -300 l 42 -300 l 42 -244 l 164 -244 z "},"π":{"ha":825,"x_min":24,"x_max":731,"o":"m 561 518 l 560 485 l 556 276 l 556 221 q 567 75 556 104 q 610 46 579 46 q 667 86 649 46 q 690 210 690 129 l 725 210 l 725 203 q 689 39 725 92 q 578 -14 653 -14 q 467 42 500 -14 q 435 269 435 97 l 436 378 l 440 522 l 371 524 l 264 526 q 232 94 264 201 q 121 -14 200 -14 q 48 26 72 -14 q 24 146 24 67 l 24 172 l 57 172 q 70 117 57 135 q 108 100 83 100 q 184 165 167 100 q 209 319 201 231 q 217 526 217 407 l 186 526 q 103 508 133 526 q 65 453 74 489 l 33 453 q 47 533 33 500 q 98 594 61 565 q 254 624 135 624 l 396 619 l 607 615 q 676 625 654 615 q 699 654 697 635 l 731 656 q 698 549 731 582 q 594 517 665 517 l 575 517 l 561 518 z "},"∫":{"ha":411,"x_min":-125,"x_max":506,"o":"m 393 1051 q 474 1026 443 1051 q 506 958 506 1000 q 488 911 506 931 q 438 892 469 892 q 376 936 397 892 q 336 981 356 981 q 257 550 257 981 l 253 414 q 247 247 253 326 q 227 69 240 168 q 184 -97 214 -29 q 101 -208 154 -165 q -12 -251 47 -251 q -93 -226 -61 -251 q -125 -158 -125 -200 q -108 -110 -125 -128 q -57 -93 -90 -93 q 4 -136 -17 -93 q 46 -181 25 -179 q 125 269 125 -181 l 128 386 q 133 547 128 469 q 152 724 139 625 q 196 894 165 824 q 278 1008 226 965 q 393 1051 331 1051 z "},"ª":{"ha":667,"x_min":74,"x_max":543,"o":"m 89 482 l 543 482 l 543 414 l 89 414 l 89 482 m 469 1000 l 543 1000 l 543 551 l 468 551 l 468 660 l 464 649 q 397 569 443 599 q 292 540 351 540 q 176 572 251 540 q 88 678 101 603 q 74 778 74 753 q 84 856 74 800 q 155 963 94 911 q 293 1015 215 1015 q 366 1004 314 1015 q 458 919 418 993 l 465 907 l 469 899 l 469 1000 m 153 744 q 215 640 168 672 q 313 607 263 607 q 406 641 360 607 q 462 718 453 675 q 471 781 471 761 q 456 850 471 815 l 442 876 q 385 931 419 913 q 310 950 350 950 q 204 908 244 950 q 153 808 164 865 l 150 778 l 153 744 z "},"º":{"ha":668,"x_min":74,"x_max":544,"o":"m 82 482 l 536 482 l 536 414 l 82 414 l 82 482 m 78 826 q 159 969 94 915 q 307 1022 224 1022 q 436 988 356 1022 q 531 878 517 953 q 544 779 544 803 q 535 708 544 757 q 478 608 526 658 q 390 550 429 558 q 335 540 350 542 q 307 539 319 539 q 237 549 285 539 q 140 608 189 558 q 78 733 92 658 l 74 781 l 78 826 m 172 686 q 231 627 194 647 q 310 607 267 607 q 419 651 379 607 q 464 733 458 696 q 469 781 469 769 q 447 873 469 833 q 388 933 424 913 q 308 953 351 953 q 194 903 240 953 q 149 781 149 853 q 172 686 149 726 z "},"Ω":{"ha":1153,"x_min":69,"x_max":997,"o":"m 824 125 q 918 151 890 125 q 946 244 946 178 l 978 244 l 978 0 l 600 0 l 600 250 q 770 356 707 271 q 833 567 833 442 q 751 801 833 714 q 533 888 669 888 q 315 801 397 888 q 233 567 233 714 q 295 357 233 442 q 467 250 357 272 l 467 0 l 89 0 l 89 244 l 121 244 q 147 151 121 178 q 243 125 174 125 l 414 125 l 414 207 q 160 331 250 236 q 69 567 69 425 q 198 836 69 735 q 533 938 326 938 q 869 835 740 938 q 997 567 997 733 q 908 333 997 428 q 653 207 819 239 l 653 125 l 824 125 z "},"æ":{"ha":1158,"x_min":50,"x_max":1108,"o":"m 513 501 q 468 625 513 582 q 340 668 424 668 q 286 665 303 668 q 242 654 269 663 q 197 638 214 646 q 146 611 181 631 l 103 685 q 160 714 132 701 q 235 740 188 726 q 340 754 282 754 q 482 724 424 754 q 569 635 540 693 q 681 728 622 699 q 813 757 739 757 q 1028 665 947 757 q 1108 419 1108 574 l 1104 351 l 592 351 q 610 238 592 300 q 693 126 629 176 q 844 76 757 76 q 1035 117 924 76 l 1074 40 q 947 3 1004 14 q 831 -8 889 -8 q 549 156 646 -8 q 283 -8 475 -8 q 113 49 176 -8 q 50 206 50 107 q 439 451 50 451 l 497 450 l 513 450 l 513 501 m 508 368 l 460 369 q 146 204 146 369 q 185 108 146 143 q 297 72 225 72 q 451 128 394 72 q 508 278 508 183 l 508 368 m 592 431 l 1011 431 l 1011 438 q 958 611 1011 549 q 811 674 906 674 q 652 609 713 674 q 592 431 592 544 z "},"ø":{"ha":801,"x_min":60,"x_max":742,"o":"m 678 797 l 742 749 l 653 631 q 713 508 696 564 q 729 374 729 451 q 638 93 729 199 q 392 -12 546 -12 q 293 -1 329 -12 q 214 43 257 10 l 146 -50 l 81 -8 l 153 92 q 119 148 129 131 q 94 193 108 165 q 69 265 79 221 q 60 371 60 310 q 151 650 60 543 q 392 757 243 757 q 499 743 457 757 q 597 690 542 729 l 678 797 m 265 107 q 328 76 299 85 q 394 68 357 68 q 574 151 506 68 q 642 371 642 235 q 615 522 642 454 l 597 561 l 265 107 m 547 619 q 397 681 485 681 q 217 597 285 681 q 150 372 150 513 q 167 242 150 275 q 192 193 183 210 q 206 168 201 176 l 547 619 z "},"¿":{"ha":643,"x_min":40,"x_max":642,"o":"m 315 1001 l 413 1001 l 413 856 l 315 856 l 315 1001 m 413 796 l 413 771 l 413 753 q 409 678 413 701 q 401 641 406 654 q 381 597 397 628 q 331 535 365 565 l 265 482 q 144 281 144 385 q 208 132 144 190 q 374 74 272 74 q 594 156 479 74 l 642 86 q 372 -15 508 -15 q 135 69 229 -15 q 40 282 40 154 q 54 372 40 335 q 98 449 68 410 q 161 514 128 489 l 221 557 q 297 640 278 600 q 317 758 317 679 l 315 796 l 413 796 z "},"¡":{"ha":238,"x_min":71,"x_max":168,"o":"m 71 1001 l 168 1001 l 168 856 l 71 856 l 71 1001 m 82 803 l 154 803 l 167 15 l 71 15 l 82 803 z "},"¬":{"ha":844,"x_min":74,"x_max":707,"o":"m 74 575 l 707 575 l 707 300 l 640 300 l 640 500 l 74 500 l 74 575 z "},"√":{"ha":825,"x_min":-19,"x_max":825,"o":"m 825 1061 l 746 1061 l 343 -28 l 299 -28 l 82 571 l -3 540 l -19 594 l 172 661 l 346 181 l 696 1126 l 825 1126 l 825 1061 z "},"ƒ":{"ha":525,"x_min":-112,"x_max":514,"o":"m -71 -256 q -17 -262 -43 -262 q 88 -222 63 -262 q 119 -115 114 -181 l 183 667 l 57 667 l 63 742 l 188 744 l 200 869 q 210 958 200 936 q 265 1036 221 979 q 421 1093 310 1093 q 514 1075 465 1093 l 476 1003 q 422 1008 444 1008 q 318 974 353 1008 q 283 865 283 939 l 276 743 l 450 744 l 446 668 l 272 668 l 208 -122 q 197 -201 208 -169 q 157 -265 185 -233 q 81 -319 129 -297 q -15 -342 32 -342 q -112 -326 -58 -342 l -71 -256 z "},"≈":{"ha":825,"x_min":21,"x_max":742,"o":"m 21 139 l 21 246 q 142 308 89 289 q 244 326 194 326 q 404 293 306 326 q 542 260 503 260 q 627 281 581 260 q 742 353 674 301 l 742 244 q 635 187 683 206 q 535 168 588 168 q 390 201 490 168 q 229 233 290 233 q 155 218 190 233 q 88 184 119 203 q 21 139 57 165 m 21 304 l 21 411 q 81 446 53 431 q 151 476 110 461 q 243 490 193 490 q 402 458 301 490 q 542 425 503 425 q 625 445 579 425 q 742 517 671 465 l 742 410 q 685 376 717 393 q 617 347 653 360 q 535 333 581 333 q 390 366 489 333 q 236 399 290 399 q 144 380 188 399 q 21 304 101 361 z "},"∆":{"ha":919,"x_min":29,"x_max":826,"o":"m 826 0 l 29 0 l 413 933 l 443 933 l 826 0 m 128 63 l 646 63 l 388 700 l 128 63 z "},"«":{"ha":553,"x_min":43,"x_max":508,"o":"m 247 742 l 317 726 l 163 371 l 314 17 l 247 -3 l 43 369 l 247 742 m 440 742 l 508 726 l 354 371 l 506 17 l 440 -3 l 236 369 l 440 742 z "},"»":{"ha":549,"x_min":43,"x_max":504,"o":"m 111 744 l 313 369 l 111 -4 l 44 14 l 193 369 l 43 729 l 111 744 m 303 744 l 504 369 l 303 -4 l 238 14 l 386 369 l 236 729 l 303 744 z "},"…":{"ha":1383,"x_min":175,"x_max":1224,"o":"m 194 103 q 243 121 214 121 q 290 102 271 121 q 308 54 308 83 q 289 8 308 28 q 240 -11 269 -11 q 194 8 214 -11 q 175 56 175 28 q 194 103 175 83 m 657 103 q 706 121 676 121 q 752 102 733 121 q 771 54 771 83 q 751 8 771 28 q 703 -11 732 -11 q 657 8 676 -11 q 638 56 638 28 q 657 103 638 83 m 1157 122 q 1204 103 1185 122 q 1224 56 1224 83 q 1204 8 1224 28 q 1157 -11 1185 -11 q 1110 8 1129 -11 q 1090 56 1090 28 q 1110 103 1090 83 q 1157 122 1129 122 z "}," ":{"ha":694,"x_min":0,"x_max":0,"o":""},"À":{"ha":874,"x_min":-19,"x_max":893,"o":"m 397 1001 l 493 1001 l 893 0 l 794 0 l 685 276 l 193 276 l 81 0 l -19 0 l 397 1001 m 224 356 l 658 356 l 469 831 l 456 867 q 448 890 451 876 q 444 926 444 904 q 440 893 443 908 q 433 867 438 878 l 419 831 l 224 356 m 325 1386 l 517 1172 l 461 1117 l 254 1314 l 325 1386 z "},"Ã":{"ha":874,"x_min":-19,"x_max":893,"o":"m 397 1001 l 493 1001 l 893 0 l 794 0 l 685 276 l 193 276 l 81 0 l -19 0 l 397 1001 m 224 356 l 658 356 l 469 831 l 456 867 q 448 890 451 876 q 444 926 444 904 q 440 893 443 908 q 433 867 438 878 l 419 831 l 224 356 m 325 1219 q 341 1219 335 1219 q 390 1213 347 1219 l 447 1201 q 525 1193 496 1193 q 638 1225 586 1193 l 640 1138 q 528 1113 582 1113 q 488 1115 511 1113 q 440 1122 464 1118 l 382 1131 q 358 1135 372 1133 q 335 1136 344 1136 q 232 1118 290 1136 l 232 1203 q 325 1219 281 1219 z "},"Õ":{"ha":999,"x_min":60,"x_max":939,"o":"m 499 1024 q 817 880 696 1024 q 939 503 939 736 q 818 126 939 269 q 500 -17 697 -17 q 181 125 301 -17 q 60 501 60 267 q 181 880 60 736 q 499 1024 301 1024 m 154 503 q 247 181 154 300 q 496 63 339 63 q 747 183 653 63 q 842 504 842 304 q 749 827 842 707 q 499 947 656 947 q 249 826 343 947 q 154 503 154 706 m 388 1219 q 403 1219 397 1219 q 453 1213 410 1219 l 510 1201 q 588 1193 558 1193 q 700 1225 649 1193 l 703 1138 q 590 1113 644 1113 q 550 1115 574 1113 q 503 1122 526 1118 l 444 1131 q 421 1135 435 1133 q 397 1136 407 1136 q 294 1118 353 1136 l 294 1203 q 388 1219 343 1219 z "},"Œ":{"ha":1369,"x_min":60,"x_max":1331,"o":"m 844 1001 l 1311 1001 l 1311 915 l 931 915 l 931 560 l 1286 560 l 1286 475 l 929 475 l 929 85 l 1331 85 l 1331 0 l 842 0 l 842 175 q 750 58 815 129 q 504 -14 685 -14 q 183 127 306 -14 q 60 496 60 268 q 183 876 60 729 q 503 1024 307 1024 q 751 956 689 1024 q 823 876 814 889 q 846 840 832 864 l 844 1001 m 154 496 q 251 188 154 306 q 506 69 349 69 q 754 185 664 69 q 844 501 844 300 q 753 822 844 706 q 499 939 661 939 q 250 816 346 939 q 154 496 154 693 z "},"œ":{"ha":1308,"x_min":60,"x_max":1247,"o":"m 957 758 q 1168 667 1089 758 q 1247 421 1247 575 l 1244 358 l 729 358 q 734 297 729 317 q 761 222 739 276 q 846 122 783 167 q 986 78 908 78 q 1076 89 1035 78 q 1169 125 1117 100 l 1210 47 q 1090 6 1146 18 q 978 -7 1035 -7 q 832 25 900 -7 q 738 92 764 57 q 704 144 713 126 q 690 175 696 161 q 669 134 679 150 q 608 53 660 118 q 393 -12 557 -12 q 151 91 242 -12 q 60 369 60 194 q 153 649 60 542 q 397 756 246 756 q 544 722 476 756 q 642 648 613 689 q 688 569 671 607 q 957 758 763 758 m 151 367 q 221 149 151 235 q 397 63 290 63 q 572 146 504 63 q 640 363 640 229 q 572 588 640 503 q 394 672 504 672 q 219 588 288 672 q 151 367 151 503 m 735 438 l 1154 438 l 1154 450 q 1099 612 1154 550 q 956 674 1044 674 q 808 613 865 674 q 735 438 750 551 z "},"–":{"ha":792,"x_min":44,"x_max":746,"o":"m 44 556 l 746 556 l 746 474 l 44 474 l 44 556 z "},"—":{"ha":1383,"x_min":42,"x_max":1342,"o":"m 42 536 l 1342 536 l 1342 464 l 42 464 l 42 536 z "},"“":{"ha":425,"x_min":40,"x_max":385,"o":"m 107 1011 l 189 1000 l 149 686 l 40 706 l 107 1011 m 301 1011 l 385 1000 l 344 686 l 236 706 l 301 1011 z "},"”":{"ha":425,"x_min":40,"x_max":385,"o":"m 81 1011 l 189 989 l 125 685 l 40 693 l 81 1011 m 276 1011 l 385 989 l 319 685 l 236 693 l 276 1011 z "},"‘":{"ha":229,"x_min":40,"x_max":189,"o":"m 107 1011 l 189 1000 l 149 686 l 40 706 l 107 1011 z "},"’":{"ha":229,"x_min":40,"x_max":189,"o":"m 81 1011 l 189 989 l 125 685 l 40 693 l 81 1011 z "},"÷":{"ha":825,"x_min":60,"x_max":703,"o":"m 382 219 q 438 197 415 219 q 460 140 460 175 q 436 85 460 107 q 382 61 415 61 q 326 85 349 61 q 303 140 303 110 q 327 197 303 174 q 382 219 351 219 m 703 281 l 60 281 l 60 375 l 703 375 l 703 281 m 382 593 q 438 569 415 593 q 460 514 460 546 q 436 458 460 481 q 382 435 415 435 q 326 458 349 435 q 303 514 303 481 q 327 570 303 547 q 382 593 351 593 z "},"◊":{"ha":742,"x_min":4,"x_max":682,"o":"m 343 1121 l 682 401 l 343 -324 l 4 401 l 343 1121 m 343 956 l 82 401 l 343 -158 l 604 401 l 343 956 z "},"ÿ":{"ha":572,"x_min":-11,"x_max":582,"o":"m 82 742 l 258 206 l 274 160 l 286 93 q 297 160 293 140 q 315 221 301 179 l 489 742 l 582 742 l 283 -144 q 97 -300 229 -300 q 57 -299 71 -300 q 14 -290 43 -297 l 36 -211 q 85 -218 61 -218 q 172 -174 140 -218 q 236 -4 203 -129 l -11 742 l 82 742 m 108 969 l 210 969 l 210 815 l 108 815 l 108 969 m 360 969 l 461 969 l 461 817 l 360 817 l 360 969 z "},"Ÿ":{"ha":757,"x_min":-40,"x_max":797,"o":"m 67 1001 l 344 582 l 360 557 q 385 507 371 540 q 398 542 394 533 q 410 561 401 550 l 431 593 l 690 1001 l 797 1001 l 429 439 l 429 0 l 339 0 l 339 440 l -40 1001 l 67 1001 m 201 1279 l 303 1279 l 303 1125 l 201 1125 l 201 1279 m 453 1279 l 554 1279 l 554 1126 l 453 1126 l 453 1279 z "},"∕":{"ha":260,"x_min":-190,"x_max":450,"o":"m 414 1014 l 450 992 l -154 -8 l -190 11 l 414 1014 z "},"¤":{"ha":686,"x_min":74,"x_max":561,"o":"m 164 388 q 124 500 124 439 q 163 614 124 563 l 74 699 l 83 710 l 92 721 l 101 731 l 113 740 l 203 653 q 315 692 253 692 q 432 654 382 692 l 519 742 l 532 732 q 561 699 549 718 l 471 614 q 498 560 489 588 q 507 499 507 532 q 469 386 507 436 l 560 296 l 550 286 l 542 278 l 529 267 l 518 257 l 431 347 q 317 310 383 310 q 203 347 253 310 l 113 258 q 74 297 90 275 l 164 388 m 315 369 q 408 408 369 369 q 446 500 446 446 q 408 592 446 554 q 315 631 369 631 q 224 593 261 631 q 186 500 186 556 q 224 408 186 446 q 315 369 263 369 z "},"‹":{"ha":360,"x_min":43,"x_max":317,"o":"m 247 742 l 317 726 l 163 371 l 314 17 l 247 -3 l 43 369 l 247 742 z "},"›":{"ha":356,"x_min":43,"x_max":313,"o":"m 111 744 l 313 369 l 111 -4 l 44 14 l 193 369 l 43 729 l 111 744 z "},"":{"ha":792,"x_min":117,"x_max":674,"o":"m 178 781 l 397 557 l 615 778 l 674 721 l 451 501 l 672 283 l 613 225 l 394 446 l 175 224 l 118 281 l 340 500 l 117 721 l 178 781 z "},"":{"ha":424,"x_min":-3,"x_max":289,"o":"m 218 1001 l 289 1001 l 289 0 l 199 0 l 199 874 l 42 754 l -3 807 l 218 1001 z "},"‡":{"ha":799,"x_min":43,"x_max":754,"o":"m 44 1 l 353 3 l 350 517 l 44 517 l 44 614 l 350 615 l 349 913 l 447 914 l 451 614 l 753 614 l 754 518 l 449 518 l 453 4 l 754 4 l 754 -92 l 450 -93 l 453 -394 l 353 -393 l 351 -96 l 43 -96 l 44 1 z "},"∙":{"ha":181,"x_min":40,"x_max":140,"o":"m 40 456 l 140 456 l 140 311 l 40 311 l 40 456 z "},"‚":{"ha":204,"x_min":19,"x_max":164,"o":"m 61 167 l 164 146 l 97 -154 l 19 -146 l 61 167 z "},"„":{"ha":400,"x_min":19,"x_max":358,"o":"m 61 167 l 164 146 l 97 -154 l 19 -146 l 61 167 m 257 167 l 358 146 l 293 -154 l 215 -146 l 257 167 z "},"‰":{"ha":1433,"x_min":43,"x_max":1390,"o":"m 258 1021 q 408 949 346 1021 q 471 774 471 876 q 408 598 471 671 q 257 525 346 525 q 106 598 169 525 q 43 774 43 671 q 106 949 43 876 q 258 1021 168 1021 m 688 1025 l 753 996 l 260 -24 l 193 7 l 688 1025 m 683 485 q 835 413 772 485 q 897 236 897 340 q 835 61 897 133 q 682 -11 772 -11 q 532 61 594 -11 q 469 236 469 133 q 531 413 469 340 q 683 485 592 485 m 1175 485 q 1328 413 1265 485 q 1390 236 1390 340 q 1328 61 1390 133 q 1174 -11 1265 -11 q 1024 62 1086 -11 q 963 236 963 135 q 1024 412 963 339 q 1175 485 1086 485 m 549 238 q 588 119 549 168 q 682 71 626 71 q 778 119 738 71 q 818 238 818 168 q 779 357 818 308 q 683 406 740 406 q 588 357 626 406 q 549 238 549 308 m 124 774 q 163 656 124 704 q 258 608 201 608 q 354 656 315 608 q 393 774 393 703 q 353 887 393 840 q 258 933 314 933 q 163 888 201 933 q 124 774 124 842 m 1040 242 q 1079 121 1040 171 q 1175 71 1118 71 q 1272 119 1232 71 q 1313 238 1313 168 q 1273 356 1313 307 q 1175 406 1233 406 q 1080 358 1119 406 q 1040 242 1040 310 z "},"Â":{"ha":874,"x_min":-19,"x_max":893,"o":"m 397 1001 l 493 1001 l 893 0 l 794 0 l 685 276 l 193 276 l 81 0 l -19 0 l 397 1001 m 224 356 l 658 356 l 469 831 l 456 867 q 448 890 451 876 q 444 926 444 904 q 440 893 443 908 q 433 867 438 878 l 419 831 l 224 356 m 439 1354 l 671 1194 l 618 1114 l 438 1250 l 253 1125 l 201 1196 l 439 1354 z "},"Ê":{"ha":626,"x_min":78,"x_max":586,"o":"m 100 1001 l 567 1001 l 567 921 l 190 921 l 190 558 l 529 558 l 529 478 l 190 478 l 190 81 l 586 81 l 586 0 l 100 0 l 100 1001 m 315 1354 l 547 1194 l 494 1114 l 314 1250 l 129 1125 l 78 1196 l 315 1354 z "},"Á":{"ha":874,"x_min":-19,"x_max":893,"o":"m 397 1001 l 493 1001 l 893 0 l 794 0 l 685 276 l 193 276 l 81 0 l -19 0 l 397 1001 m 224 356 l 658 356 l 469 831 l 456 867 q 448 890 451 876 q 444 926 444 904 q 440 893 443 908 q 433 867 438 878 l 419 831 l 224 356 m 549 1383 l 618 1313 l 407 1111 l 354 1167 l 549 1383 z "},"Ë":{"ha":626,"x_min":100,"x_max":586,"o":"m 100 1001 l 567 1001 l 567 921 l 190 921 l 190 558 l 529 558 l 529 478 l 190 478 l 190 81 l 586 81 l 586 0 l 100 0 l 100 1001 m 136 1279 l 238 1279 l 238 1125 l 136 1125 l 136 1279 m 388 1279 l 489 1279 l 489 1126 l 388 1126 l 388 1279 z "},"È":{"ha":626,"x_min":100,"x_max":586,"o":"m 100 1001 l 567 1001 l 567 921 l 190 921 l 190 558 l 529 558 l 529 478 l 190 478 l 190 81 l 586 81 l 586 0 l 100 0 l 100 1001 m 201 1386 l 393 1172 l 338 1117 l 131 1314 l 201 1386 z "},"Í":{"ha":290,"x_min":64,"x_max":328,"o":"m 100 1001 l 190 1001 l 190 0 l 100 0 l 100 1001 m 258 1383 l 328 1313 l 117 1111 l 64 1167 l 258 1383 z "},"Î":{"ha":290,"x_min":-90,"x_max":379,"o":"m 100 1001 l 190 1001 l 190 0 l 100 0 l 100 1001 m 147 1354 l 379 1194 l 326 1114 l 146 1250 l -39 1125 l -90 1196 l 147 1354 z "},"Ï":{"ha":290,"x_min":-32,"x_max":321,"o":"m 100 1001 l 190 1001 l 190 0 l 100 0 l 100 1001 m -32 1279 l 69 1279 l 69 1125 l -32 1125 l -32 1279 m 219 1279 l 321 1279 l 321 1126 l 219 1126 l 219 1279 z "},"Ì":{"ha":290,"x_min":-37,"x_max":225,"o":"m 100 1001 l 190 1001 l 190 0 l 100 0 l 100 1001 m 33 1386 l 225 1172 l 169 1117 l -37 1314 l 33 1386 z "},"Ó":{"ha":999,"x_min":60,"x_max":939,"o":"m 499 1024 q 817 880 696 1024 q 939 503 939 736 q 818 126 939 269 q 500 -17 697 -17 q 181 125 301 -17 q 60 501 60 267 q 181 880 60 736 q 499 1024 301 1024 m 154 503 q 247 181 154 300 q 496 63 339 63 q 747 183 653 63 q 842 504 842 304 q 749 827 842 707 q 499 947 656 947 q 249 826 343 947 q 154 503 154 706 m 611 1383 l 681 1313 l 469 1111 l 417 1167 l 611 1383 z "},"Ô":{"ha":999,"x_min":60,"x_max":939,"o":"m 499 1024 q 817 880 696 1024 q 939 503 939 736 q 818 126 939 269 q 500 -17 697 -17 q 181 125 301 -17 q 60 501 60 267 q 181 880 60 736 q 499 1024 301 1024 m 154 503 q 247 181 154 300 q 496 63 339 63 q 747 183 653 63 q 842 504 842 304 q 749 827 842 707 q 499 947 656 947 q 249 826 343 947 q 154 503 154 706 m 501 1354 l 733 1194 l 681 1114 l 500 1250 l 315 1125 l 264 1196 l 501 1354 z "},"":{"ha":1186,"x_min":76,"x_max":1021,"o":"m 567 825 l 565 835 l 565 850 q 629 1006 565 935 q 790 1094 693 1076 l 790 1078 l 792 1053 q 722 894 792 964 q 583 824 651 824 l 578 824 l 567 825 m 1021 274 q 881 41 943 106 q 743 -24 818 -24 q 654 -1 708 -24 q 571 21 600 21 q 482 -1 539 21 q 396 -24 425 -24 q 308 6 354 -24 q 266 44 290 19 q 199 127 242 68 q 116 294 156 186 q 76 500 76 403 q 162 742 76 649 q 381 836 247 836 q 430 831 403 836 q 501 807 457 825 q 569 789 546 789 q 654 813 594 789 q 756 836 714 836 q 891 809 832 836 q 999 725 950 782 q 897 627 931 682 q 863 503 863 572 q 904 367 863 428 q 1021 274 946 306 z "},"Ò":{"ha":999,"x_min":60,"x_max":939,"o":"m 499 1024 q 817 880 696 1024 q 939 503 939 736 q 818 126 939 269 q 500 -17 697 -17 q 181 125 301 -17 q 60 501 60 267 q 181 880 60 736 q 499 1024 301 1024 m 154 503 q 247 181 154 300 q 496 63 339 63 q 747 183 653 63 q 842 504 842 304 q 749 827 842 707 q 499 947 656 947 q 249 826 343 947 q 154 503 154 706 m 388 1386 l 579 1172 l 524 1117 l 317 1314 l 388 1386 z "},"Ú":{"ha":911,"x_min":100,"x_max":811,"o":"m 811 342 q 713 85 811 183 q 456 -14 614 -14 q 199 85 297 -14 q 100 342 100 183 l 100 1001 l 190 1001 l 190 357 q 261 144 190 221 q 456 68 332 68 q 650 144 579 68 q 721 357 721 221 l 721 1001 l 811 1001 l 811 342 m 568 1383 l 638 1313 l 426 1111 l 374 1167 l 568 1383 z "},"Û":{"ha":911,"x_min":100,"x_max":811,"o":"m 811 342 q 713 85 811 183 q 456 -14 614 -14 q 199 85 297 -14 q 100 342 100 183 l 100 1001 l 190 1001 l 190 357 q 261 144 190 221 q 456 68 332 68 q 650 144 579 68 q 721 357 721 221 l 721 1001 l 811 1001 l 811 342 m 457 1354 l 689 1194 l 636 1114 l 456 1250 l 271 1125 l 219 1196 l 457 1354 z "},"Ù":{"ha":911,"x_min":100,"x_max":811,"o":"m 811 342 q 713 85 811 183 q 456 -14 614 -14 q 199 85 297 -14 q 100 342 100 183 l 100 1001 l 190 1001 l 190 357 q 261 144 190 221 q 456 68 332 68 q 650 144 579 68 q 721 357 721 221 l 721 1001 l 811 1001 l 811 342 m 343 1386 l 535 1172 l 479 1117 l 272 1314 l 343 1386 z "},"ı":{"ha":269,"x_min":90,"x_max":178,"o":"m 90 740 l 178 740 l 178 0 l 90 0 l 90 740 z "},"̂":{"ha":474,"x_min":1,"x_max":471,"o":"m 239 1044 l 471 885 l 418 804 l 238 940 l 53 815 l 1 886 l 239 1044 z "},"̃":{"ha":411,"x_min":1,"x_max":410,"o":"m 94 910 q 110 910 104 910 q 160 903 117 910 l 217 892 q 294 883 265 883 q 407 915 356 883 l 410 828 q 297 803 351 803 q 257 806 281 803 q 210 813 233 808 l 151 821 q 128 825 142 824 q 104 826 114 826 q 1 808 60 826 l 1 893 q 94 910 50 910 z "},"ˉ":{"ha":407,"x_min":-3,"x_max":407,"o":"m -3 904 l 407 904 l 407 817 l -3 817 l -3 904 z "},"˘":{"ha":446,"x_min":4,"x_max":446,"o":"m 63 1011 q 134 919 100 944 q 221 893 168 893 q 316 917 282 893 q 390 1011 350 942 l 446 982 q 353 842 401 882 q 229 803 306 803 q 97 841 144 803 q 4 981 49 879 l 63 1011 z "},"˙":{"ha":347,"x_min":1,"x_max":346,"o":"m 26 1206 l 346 1136 l 326 1063 l 1 1100 l 26 1206 z "},"˚":{"ha":360,"x_min":43,"x_max":315,"o":"m 181 1071 q 276 1031 238 1071 q 315 932 315 990 q 276 835 315 875 q 181 794 238 794 q 83 835 124 794 q 43 932 43 875 q 83 1031 43 990 q 181 1071 124 1071 m 115 932 q 133 886 115 904 q 181 868 151 868 q 226 886 208 868 q 244 933 244 904 q 226 979 244 960 q 182 999 208 999 q 135 979 154 999 q 115 932 115 960 z "},"¸":{"ha":267,"x_min":50,"x_max":267,"o":"m 188 -50 l 267 -106 l 111 -285 l 50 -239 l 188 -50 z "},"ʺ":{"ha":364,"x_min":100,"x_max":364,"o":"m 294 1074 l 364 1003 l 153 801 l 100 857 l 294 1074 z "},"˛":{"ha":178,"x_min":40,"x_max":136,"o":"m 40 144 l 136 144 l 136 0 l 40 0 l 40 144 z "},"ˇ":{"ha":474,"x_min":1,"x_max":471,"o":"m 56 1042 l 236 907 l 421 1031 l 471 961 l 235 800 l 1 963 l 56 1042 z "},"":{"ha":844,"x_min":4,"x_max":814,"o":"m 783 889 q 672 922 722 913 q 563 932 622 932 q 266 815 376 932 q 156 500 156 697 q 268 188 156 306 q 568 69 381 69 q 669 78 621 69 q 776 108 717 86 l 803 31 q 571 -12 682 -12 q 200 126 340 -12 q 60 496 60 265 q 183 856 60 751 q 381 988 306 961 q 558 1014 457 1014 q 691 1003 636 1014 q 814 963 746 992 l 783 889 m 4 540 l 42 622 l 607 622 l 569 540 l 4 540 m 4 376 l 42 458 l 532 458 l 494 376 l 4 376 z "}}}
